<?xml version="1.0" standalone="yes"?>

<svg version="1.1" viewBox="0.0 0.0 960.0 720.0" fill="none" stroke="none" stroke-linecap="square" stroke-miterlimit="10" xmlns="http://www.w3.org/2000/svg" xmlns:xlink="http://www.w3.org/1999/xlink"><clipPath id="p.0"><path d="m0 0l960.0 0l0 720.0l-960.0 0l0 -720.0z" clip-rule="nonzero"></path></clipPath><g clip-path="url(#p.0)"><path fill="#000000" fill-opacity="0.0" d="m0 0l960.0 0l0 720.0l-960.0 0z" fill-rule="evenodd"></path><path fill="#f0f0f0" d="m551.6562 380.6063l233.44879 0l0 213.41733l-233.44879 0z" fill-rule="evenodd"></path><path fill="#444444" d="m565.12494 395.6513q1.046875 0 1.828125 0.265625q0.796875 0.265625 1.3125 0.75q0.515625 0.484375 0.765625 1.15625q0.265625 0.65625 0.265625 1.46875q0 1.84375 -1.078125 2.84375q-1.078125 1.0 -3.25 1.0l-1.375 0l0 4.390625l-1.546875 0l0 -11.59375q0.34375 -0.078125 0.75 -0.125q0.40625 -0.0625 0.8125 -0.09375q0.40625 -0.046875 0.796875 -0.046875q0.390625 -0.015625 0.71875 -0.015625zm0.109375 1.34375q-0.5 0 -0.953125 0.015625q-0.453125 0.015625 -0.6875 0.046875l0 4.75l1.296875 0q1.421875 0 2.109375 -0.5625q0.703125 -0.578125 0.703125 -1.890625q0 -2.359375 -2.46875 -2.359375zm13.484375 6.125q0 1.046875 -0.296875 1.890625q-0.28125 0.84375 -0.8125 1.453125q-0.53125 0.609375 -1.28125 0.9375q-0.734375 0.328125 -1.609375 0.328125q-0.859375 0 -1.59375 -0.328125q-0.734375 -0.328125 -1.265625 -0.9375q-0.53125 -0.609375 -0.828125 -1.453125q-0.28125 -0.84375 -0.28125 -1.890625q0 -1.046875 0.28125 -1.890625q0.296875 -0.859375 0.828125 -1.453125q0.53125 -0.609375 1.265625 -0.9375q0.734375 -0.34375 1.59375 -0.34375q0.875 0 1.609375 0.34375q0.75 0.328125 1.28125 0.9375q0.53125 0.59375 0.8125 1.453125q0.296875 0.84375 0.296875 1.890625zm-1.609375 0q0 -1.5 -0.65625 -2.359375q-0.640625 -0.875 -1.734375 -0.875q-1.09375 0 -1.734375 0.875q-0.625 0.859375 -0.625 2.359375q0 1.484375 0.625 2.34375q0.640625 0.859375 1.734375 0.859375q1.09375 0 1.734375 -0.859375q0.65625 -0.859375 0.65625 -2.34375zm8.875 2.203125q0 -0.46875 -0.390625 -0.765625q-0.390625 -0.3125 -0.96875 -0.546875q-0.578125 -0.234375 -1.265625 -0.453125q-0.6875 -0.21875 -1.265625 -0.53125q-0.578125 -0.328125 -0.96875 -0.796875q-0.390625 -0.484375 -0.390625 -1.234375q0 -1.0625 0.859375 -1.78125q0.875 -0.71875 2.71875 -0.71875q0.71875 0 1.484375 0.109375q0.78125 0.109375 1.328125 0.28125l-0.28125 1.40625q-0.15625 -0.078125 -0.421875 -0.15625q-0.265625 -0.09375 -0.609375 -0.15625q-0.34375 -0.078125 -0.734375 -0.109375q-0.390625 -0.03125 -0.75 -0.03125q-2.046875 0 -2.046875 1.109375q0 0.40625 0.390625 0.6875q0.390625 0.265625 0.96875 0.5q0.59375 0.21875 1.265625 0.46875q0.6875 0.234375 1.28125 0.578125q0.59375 0.328125 0.984375 0.8125q0.390625 0.484375 0.390625 1.234375q0 1.1875 -0.9375 1.84375q-0.921875 0.65625 -2.9375 0.65625q-0.921875 0 -1.6875 -0.15625q-0.75 -0.140625 -1.4375 -0.453125l0.3125 -1.421875q0.65625 0.3125 1.390625 0.515625q0.734375 0.1875 1.5625 0.1875q2.15625 0 2.15625 -1.078125zm7.265625 -6.609375l3.734375 0l0 1.3125l-3.734375 0l0 4.09375q0 0.671875 0.09375 1.09375q0.109375 0.40625 0.328125 0.671875q0.21875 0.25 0.546875 0.34375q0.34375 0.09375 0.84375 0.09375q0.6875 0 1.09375 -0.109375q0.421875 -0.109375 0.8125 -0.296875l0.21875 1.328125q-0.265625 0.109375 -0.84375 0.296875q-0.578125 0.1875 -1.4375 0.1875q-0.984375 0 -1.609375 -0.21875q-0.625 -0.234375 -0.984375 -0.6875q-0.34375 -0.453125 -0.484375 -1.125q-0.125 -0.6875 -0.125 -1.578125l0 -4.09375l-1.859375 0l0 -1.3125l1.859375 0l0 -2.46875l1.546875 -0.265625l0 2.734375zm13.453125 2.921875q0 1.640625 -0.40625 2.78125q-0.40625 1.140625 -1.125 1.859375q-0.703125 0.703125 -1.6875 1.03125q-0.96875 0.3125 -2.109375 0.3125q-1.1875 0 -2.375 -0.28125l0 -11.40625q1.1875 -0.28125 2.375 -0.28125q1.140625 0 2.109375 0.328125q0.984375 0.3125 1.6875 1.046875q0.71875 0.71875 1.125 1.859375q0.40625 1.140625 0.40625 2.75zm-6.15625 4.578125q0.484375 0.0625 0.96875 0.0625q0.859375 0 1.515625 -0.25q0.671875 -0.265625 1.125 -0.828125q0.46875 -0.5625 0.703125 -1.4375q0.25 -0.890625 0.25 -2.125q0 -2.390625 -0.921875 -3.515625q-0.921875 -1.125 -2.71875 -1.125q-0.25 0 -0.484375 0.015625q-0.234375 0.015625 -0.4375 0.046875l0 9.15625zm11.671875 -7.71875q1.78125 0 2.75 1.125q0.96875 1.109375 0.96875 3.359375l0 0.5625l-6.296875 0q0.09375 1.359375 0.890625 2.078125q0.8125 0.703125 2.28125 0.703125q0.828125 0 1.421875 -0.125q0.59375 -0.140625 0.890625 -0.28125l0.203125 1.328125q-0.28125 0.140625 -1.03125 0.3125q-0.734375 0.171875 -1.65625 0.171875q-1.140625 0 -2.015625 -0.34375q-0.859375 -0.359375 -1.4375 -0.953125q-0.5625 -0.609375 -0.84375 -1.453125q-0.28125 -0.859375 -0.28125 -1.84375q0 -1.171875 0.359375 -2.046875q0.359375 -0.875 0.9375 -1.4375q0.59375 -0.578125 1.328125 -0.859375q0.75 -0.296875 1.53125 -0.296875zm2.125 3.765625q0 -1.125 -0.59375 -1.765625q-0.578125 -0.65625 -1.546875 -0.65625q-0.5625 0 -1.015625 0.203125q-0.4375 0.203125 -0.765625 0.546875q-0.3125 0.34375 -0.5 0.78125q-0.1875 0.4375 -0.25 0.890625l4.671875 0zm6.890625 -3.546875l3.734375 0l0 1.3125l-3.734375 0l0 4.09375q0 0.671875 0.09375 1.09375q0.109375 0.40625 0.328125 0.671875q0.21875 0.25 0.546875 0.34375q0.34375 0.09375 0.84375 0.09375q0.6875 0 1.09375 -0.109375q0.421875 -0.109375 0.8125 -0.296875l0.21875 1.328125q-0.265625 0.109375 -0.84375 0.296875q-0.578125 0.1875 -1.4375 0.1875q-0.984375 0 -1.609375 -0.21875q-0.625 -0.234375 -0.984375 -0.6875q-0.34375 -0.453125 -0.484375 -1.125q-0.125 -0.6875 -0.125 -1.578125l0 -4.09375l-1.859375 0l0 -1.3125l1.859375 0l0 -2.46875l1.546875 -0.265625l0 2.734375zm9.5625 7.6875q0.59375 0 1.046875 -0.03125q0.46875 -0.046875 0.78125 -0.09375l0 -2.625q-0.3125 -0.09375 -0.734375 -0.140625q-0.421875 -0.0625 -0.90625 -0.0625q-0.4375 0 -0.859375 0.0625q-0.40625 0.0625 -0.734375 0.234375q-0.328125 0.171875 -0.53125 0.453125q-0.203125 0.265625 -0.203125 0.6875q0 0.859375 0.578125 1.1875q0.578125 0.328125 1.5625 0.328125zm-0.15625 -7.90625q1.0 0 1.671875 0.25q0.671875 0.25 1.078125 0.6875q0.421875 0.4375 0.59375 1.0625q0.171875 0.625 0.171875 1.375l0 5.5q-0.546875 0.09375 -1.453125 0.21875q-0.890625 0.140625 -1.84375 0.140625q-0.71875 0 -1.40625 -0.125q-0.6875 -0.109375 -1.21875 -0.421875q-0.53125 -0.328125 -0.859375 -0.875q-0.3125 -0.546875 -0.3125 -1.40625q0 -0.75 0.328125 -1.265625q0.328125 -0.53125 0.84375 -0.859375q0.53125 -0.328125 1.203125 -0.46875q0.671875 -0.140625 1.359375 -0.140625q0.9375 0 1.828125 0.203125l0 -0.4375q0 -0.390625 -0.09375 -0.75q-0.078125 -0.375 -0.328125 -0.671875q-0.234375 -0.3125 -0.640625 -0.484375q-0.40625 -0.1875 -1.046875 -0.1875q-0.8125 0 -1.421875 0.109375q-0.609375 0.109375 -0.9375 0.21875l-0.1875 -1.28125q0.328125 -0.15625 1.078125 -0.265625q0.75 -0.125 1.59375 -0.125zm8.609375 -1.15625q-0.484375 0 -0.859375 -0.34375q-0.359375 -0.34375 -0.359375 -0.921875q0 -0.59375 0.359375 -0.9375q0.375 -0.34375 0.859375 -0.34375q0.515625 0 0.859375 0.34375q0.359375 0.34375 0.359375 0.9375q0 0.578125 -0.359375 0.921875q-0.34375 0.34375 -0.859375 0.34375zm-0.390625 2.6875l-2.546875 0l0 -1.3125l4.09375 0l0 5.40625q0 1.3125 0.359375 1.765625q0.375 0.4375 1.09375 0.4375q0.546875 0 1.015625 -0.125q0.46875 -0.140625 0.734375 -0.28125l0.21875 1.328125q-0.109375 0.046875 -0.328125 0.140625q-0.203125 0.078125 -0.484375 0.15625q-0.265625 0.078125 -0.609375 0.125q-0.328125 0.0625 -0.6875 0.0625q-0.828125 0 -1.390625 -0.21875q-0.546875 -0.234375 -0.875 -0.6875q-0.328125 -0.453125 -0.46875 -1.125q-0.125 -0.6875 -0.125 -1.578125l0 -4.09375zm12.171875 7.703125q-0.828125 0 -1.390625 -0.21875q-0.546875 -0.234375 -0.875 -0.6875q-0.3125 -0.453125 -0.453125 -1.125q-0.125 -0.6875 -0.125 -1.578125l0 -8.328125l-2.546875 0l0 -1.34375l4.09375 0l0 9.671875q0 0.671875 0.078125 1.09375q0.09375 0.40625 0.265625 0.671875q0.1875 0.25 0.453125 0.34375q0.265625 0.09375 0.640625 0.09375q0.546875 0 1.015625 -0.125q0.484375 -0.140625 0.75 -0.28125l0.21875 1.328125q-0.109375 0.046875 -0.328125 0.140625q-0.203125 0.078125 -0.484375 0.15625q-0.28125 0.078125 -0.625 0.125q-0.328125 0.0625 -0.6875 0.0625z" fill-rule="nonzero"></path><path fill="#444444" d="m561.99994 442.9638q0.859375 -0.21875 1.703125 -0.328125q0.84375 -0.109375 1.59375 -0.109375q1.765625 0 2.65625 0.90625q0.90625 0.90625 0.90625 2.921875l0 5.171875l-1.546875 0l0 -4.890625q0 -0.84375 -0.15625 -1.375q-0.15625 -0.53125 -0.4375 -0.828125q-0.265625 -0.296875 -0.65625 -0.40625q-0.390625 -0.125 -0.84375 -0.125q-0.375 0 -0.8125 0.046875q-0.421875 0.046875 -0.828125 0.125l0 7.453125l-1.578125 0l0 -8.5625zm11.953125 -1.625q-0.484375 0 -0.859375 -0.34375q-0.359375 -0.34375 -0.359375 -0.921875q0 -0.59375 0.359375 -0.9375q0.375 -0.34375 0.859375 -0.34375q0.515625 0 0.859375 0.34375q0.359375 0.34375 0.359375 0.9375q0 0.578125 -0.359375 0.921875q-0.34375 0.34375 -0.859375 0.34375zm-0.390625 2.6875l-2.546875 0l0 -1.3125l4.09375 0l0 5.40625q0 1.3125 0.359375 1.765625q0.375 0.4375 1.09375 0.4375q0.546875 0 1.015625 -0.125q0.46875 -0.140625 0.734375 -0.28125l0.21875 1.328125q-0.109375 0.046875 -0.328125 0.140625q-0.203125 0.078125 -0.484375 0.15625q-0.265625 0.078125 -0.609375 0.125q-0.328125 0.0625 -0.6875 0.0625q-0.828125 0 -1.390625 -0.21875q-0.546875 -0.234375 -0.875 -0.6875q-0.328125 -0.453125 -0.46875 -1.125q-0.125 -0.6875 -0.125 -1.578125l0 -4.09375zm12.171875 7.703125q-0.828125 0 -1.390625 -0.21875q-0.546875 -0.234375 -0.875 -0.6875q-0.3125 -0.453125 -0.453125 -1.125q-0.125 -0.6875 -0.125 -1.578125l0 -8.328125l-2.546875 0l0 -1.34375l4.09375 0l0 9.671875q0 0.671875 0.078125 1.09375q0.09375 0.40625 0.265625 0.671875q0.1875 0.25 0.453125 0.34375q0.265625 0.09375 0.640625 0.09375q0.546875 0 1.015625 -0.125q0.484375 -0.140625 0.75 -0.28125l0.21875 1.328125q-0.109375 0.046875 -0.328125 0.140625q-0.203125 0.078125 -0.484375 0.15625q-0.28125 0.078125 -0.625 0.125q-0.328125 0.0625 -0.6875 0.0625z" fill-rule="nonzero"></path><path fill="#f0f0f0" d="m551.6562 22.343832l233.44879 0l0 322.04724l-233.44879 0z" fill-rule="evenodd"></path><path fill="#444444" d="m565.12494 37.388832q1.046875 0 1.828125 0.265625q0.796875 0.265625 1.3125 0.75q0.515625 0.484375 0.765625 1.15625q0.265625 0.65625 0.265625 1.46875q0 1.84375 -1.078125 2.84375q-1.078125 1.0 -3.25 1.0l-1.375 0l0 4.390625l-1.546875 0l0 -11.59375q0.34375 -0.078125 0.75 -0.125q0.40625 -0.0625 0.8125 -0.09375q0.40625 -0.046875 0.796875 -0.046875q0.390625 -0.015625 0.71875 -0.015625zm0.109375 1.34375q-0.5 0 -0.953125 0.015625q-0.453125 0.015625 -0.6875 0.046875l0 4.75l1.296875 0q1.421875 0 2.109375 -0.5625q0.703125 -0.578125 0.703125 -1.890625q0 -2.359375 -2.46875 -2.359375zm13.484375 6.125q0 1.046875 -0.296875 1.890625q-0.28125 0.84375 -0.8125 1.453125q-0.53125 0.609375 -1.28125 0.9375q-0.734375 0.328125 -1.609375 0.328125q-0.859375 0 -1.59375 -0.328125q-0.734375 -0.328125 -1.265625 -0.9375q-0.53125 -0.609375 -0.828125 -1.453125q-0.28125 -0.84375 -0.28125 -1.890625q0 -1.046875 0.28125 -1.890625q0.296875 -0.859375 0.828125 -1.453125q0.53125 -0.609375 1.265625 -0.9375q0.734375 -0.34375 1.59375 -0.34375q0.875 0 1.609375 0.34375q0.75 0.328125 1.28125 0.9375q0.53125 0.59375 0.8125 1.453125q0.296875 0.84375 0.296875 1.890625zm-1.609375 0q0 -1.5 -0.65625 -2.359375q-0.640625 -0.875 -1.734375 -0.875q-1.09375 0 -1.734375 0.875q-0.625 0.859375 -0.625 2.359375q0 1.484375 0.625 2.34375q0.640625 0.859375 1.734375 0.859375q1.09375 0 1.734375 -0.859375q0.65625 -0.859375 0.65625 -2.34375zm8.875 2.203125q0 -0.46875 -0.390625 -0.765625q-0.390625 -0.3125 -0.96875 -0.546875q-0.578125 -0.234375 -1.265625 -0.453125q-0.6875 -0.21875 -1.265625 -0.53125q-0.578125 -0.328125 -0.96875 -0.796875q-0.390625 -0.484375 -0.390625 -1.234375q0 -1.0625 0.859375 -1.78125q0.875 -0.71875 2.71875 -0.71875q0.71875 0 1.484375 0.109375q0.78125 0.109375 1.328125 0.28125l-0.28125 1.40625q-0.15625 -0.078125 -0.421875 -0.15625q-0.265625 -0.09375 -0.609375 -0.15625q-0.34375 -0.078125 -0.734375 -0.109375q-0.390625 -0.03125 -0.75 -0.03125q-2.046875 0 -2.046875 1.109375q0 0.40625 0.390625 0.6875q0.390625 0.265625 0.96875 0.5q0.59375 0.21875 1.265625 0.46875q0.6875 0.234375 1.28125 0.578125q0.59375 0.328125 0.984375 0.8125q0.390625 0.484375 0.390625 1.234375q0 1.1875 -0.9375 1.84375q-0.921875 0.65625 -2.9375 0.65625q-0.921875 0 -1.6875 -0.15625q-0.75 -0.140625 -1.4375 -0.453125l0.3125 -1.421875q0.65625 0.3125 1.390625 0.515625q0.734375 0.1875 1.5625 0.1875q2.15625 0 2.15625 -1.078125zm7.265625 -6.609375l3.734375 0l0 1.3125l-3.734375 0l0 4.09375q0 0.671875 0.09375 1.09375q0.109375 0.40625 0.328125 0.671875q0.21875 0.25 0.546875 0.34375q0.34375 0.09375 0.84375 0.09375q0.6875 0 1.09375 -0.109375q0.421875 -0.109375 0.8125 -0.296875l0.21875 1.328125q-0.265625 0.109375 -0.84375 0.296875q-0.578125 0.1875 -1.4375 0.1875q-0.984375 0 -1.609375 -0.21875q-0.625 -0.234375 -0.984375 -0.6875q-0.34375 -0.453125 -0.484375 -1.125q-0.125 -0.6875 -0.125 -1.578125l0 -4.09375l-1.859375 0l0 -1.3125l1.859375 0l0 -2.46875l1.546875 -0.265625l0 2.734375zm10.25 -1.625l0 9.109375l2.28125 0l0 1.328125l-6.125 0l0 -1.328125l2.28125 0l0 -9.109375l-2.28125 0l0 -1.328125l6.125 0l0 1.328125l-2.28125 0zm5.140625 1.875q0.859375 -0.21875 1.703125 -0.328125q0.84375 -0.109375 1.59375 -0.109375q1.765625 0 2.65625 0.90625q0.90625 0.90625 0.90625 2.921875l0 5.171875l-1.546875 0l0 -4.890625q0 -0.84375 -0.15625 -1.375q-0.15625 -0.53125 -0.4375 -0.828125q-0.265625 -0.296875 -0.65625 -0.40625q-0.390625 -0.125 -0.84375 -0.125q-0.375 0 -0.8125 0.046875q-0.421875 0.046875 -0.828125 0.125l0 7.453125l-1.578125 0l0 -8.5625zm14.5625 1.609375q-0.265625 -0.25 -0.78125 -0.46875q-0.515625 -0.21875 -1.0625 -0.21875q-0.625 0 -1.078125 0.25q-0.4375 0.25 -0.734375 0.6875q-0.28125 0.421875 -0.421875 1.015625q-0.125 0.59375 -0.125 1.28125q0 1.53125 0.71875 2.375q0.71875 0.828125 1.890625 0.828125q0.578125 0 0.984375 -0.046875q0.421875 -0.0625 0.609375 -0.125l0 -5.578125zm0 -5.953125l1.578125 -0.265625l0 12.921875q-0.515625 0.15625 -1.3125 0.296875q-0.796875 0.15625 -1.859375 0.15625q-0.953125 0 -1.734375 -0.3125q-0.78125 -0.328125 -1.328125 -0.921875q-0.546875 -0.609375 -0.859375 -1.453125q-0.296875 -0.859375 -0.296875 -1.921875q0 -1.03125 0.25 -1.875q0.25 -0.84375 0.75 -1.453125q0.5 -0.609375 1.1875 -0.953125q0.6875 -0.34375 1.59375 -0.34375q0.703125 0 1.234375 0.171875q0.53125 0.171875 0.796875 0.359375l0 -4.40625zm7.671875 3.875q1.78125 0 2.75 1.125q0.96875 1.109375 0.96875 3.359375l0 0.5625l-6.296875 0q0.09375 1.359375 0.890625 2.078125q0.8125 0.703125 2.28125 0.703125q0.828125 0 1.421875 -0.125q0.59375 -0.140625 0.890625 -0.28125l0.203125 1.328125q-0.28125 0.140625 -1.03125 0.3125q-0.734375 0.171875 -1.65625 0.171875q-1.140625 0 -2.015625 -0.34375q-0.859375 -0.359375 -1.4375 -0.953125q-0.5625 -0.609375 -0.84375 -1.453125q-0.28125 -0.859375 -0.28125 -1.84375q0 -1.171875 0.359375 -2.046875q0.359375 -0.875 0.9375 -1.4375q0.59375 -0.578125 1.328125 -0.859375q0.75 -0.296875 1.53125 -0.296875zm2.125 3.765625q0 -1.125 -0.59375 -1.765625q-0.578125 -0.65625 -1.546875 -0.65625q-0.5625 0 -1.015625 0.203125q-0.4375 0.203125 -0.765625 0.546875q-0.3125 0.34375 -0.5 0.78125q-0.1875 0.4375 -0.25 0.890625l4.671875 0zm9.5 5.265625q-0.1875 -0.375 -0.46875 -0.828125q-0.265625 -0.46875 -0.59375 -0.953125q-0.328125 -0.484375 -0.6875 -0.953125q-0.34375 -0.484375 -0.6875 -0.890625q-0.328125 0.4375 -0.71875 0.921875q-0.375 0.46875 -0.734375 0.953125q-0.34375 0.484375 -0.65625 0.9375q-0.296875 0.453125 -0.5 0.8125l-1.625 0q0.625 -1.140625 1.53125 -2.34375q0.90625 -1.203125 1.78125 -2.296875l-3.171875 -4.171875l1.765625 0l2.375 3.078125l2.1875 -3.078125l1.671875 0l-2.90625 4.078125q0.84375 1.125 1.703125 2.34375q0.875 1.21875 1.484375 2.390625l-1.75 0z" fill-rule="nonzero"></path><path fill="#444444" d="m563.37494 79.98258l4.546875 0l0 1.234375l-3.0625 0l0 13.953125l3.0625 0l0 1.234375l-4.546875 0l0 -16.421875zm13.390625 16.421875l-4.546875 0l0 -1.234375l3.0625 0l0 -13.953125l-3.0625 0l0 -1.234375l4.546875 0l0 16.421875z" fill-rule="nonzero"></path><path fill="#000000" fill-opacity="0.0" d="m510.8189 42.375328l0 610.9921" fill-rule="evenodd"></path><path stroke="#000000" stroke-width="1.0" stroke-linejoin="round" stroke-linecap="butt" stroke-dasharray="4.0,3.0" d="m510.8189 42.375328l0 610.9921" fill-rule="evenodd"></path><path fill="#f0f0f0" d="m36.509186 14.64042l433.48032 0l0 149.4803l-433.48032 0z" fill-rule="evenodd"></path><path fill="#38761d" d="m47.21231 40.920418l-1.25 0l6.8125 -11.140625l1.265625 0l-6.828125 11.140625zm-1.375 -8.59375q0 -1.359375 0.515625 -2.0625q0.53125 -0.71875 1.4375 -0.71875q0.921875 0 1.4375 0.71875q0.53125 0.703125 0.53125 2.0625q0 1.375 -0.53125 2.09375q-0.515625 0.71875 -1.4375 0.71875q-0.90625 0 -1.4375 -0.71875q-0.515625 -0.71875 -0.515625 -2.09375zm2.796875 0q0 -0.796875 -0.21875 -1.3125q-0.203125 -0.53125 -0.625 -0.53125q-0.40625 0 -0.640625 0.53125q-0.21875 0.515625 -0.21875 1.3125q0 0.8125 0.21875 1.34375q0.234375 0.515625 0.640625 0.515625q0.421875 0 0.625 -0.515625q0.21875 -0.53125 0.21875 -1.34375zm1.640625 6.03125q0 -1.359375 0.515625 -2.0625q0.515625 -0.71875 1.4375 -0.71875q0.90625 0 1.421875 0.71875q0.53125 0.703125 0.53125 2.0625q0 1.375 -0.53125 2.09375q-0.515625 0.703125 -1.421875 0.703125q-0.921875 0 -1.4375 -0.703125q-0.515625 -0.71875 -0.515625 -2.09375zm2.8125 0q0 -0.796875 -0.234375 -1.3125q-0.21875 -0.53125 -0.625 -0.53125q-0.421875 0 -0.640625 0.53125q-0.203125 0.515625 -0.203125 1.3125q0 0.8125 0.203125 1.34375q0.21875 0.515625 0.640625 0.515625q0.40625 0 0.625 -0.515625q0.234375 -0.53125 0.234375 -1.34375zm5.656189 -8.6875q0.984375 0 1.734375 0.25q0.75 0.25 1.234375 0.71875q0.5 0.453125 0.734375 1.09375q0.25 0.625 0.25 1.390625q0 1.75 -1.03125 2.703125q-1.015625 0.9375 -3.0625 0.9375l-1.296875 0l0 4.15625l-1.484375 0l0 -10.984375q0.328125 -0.0625 0.703125 -0.109375q0.390625 -0.0625 0.78125 -0.09375q0.390625 -0.046875 0.75 -0.046875q0.375 -0.015625 0.6875 -0.015625zm0.109375 1.28125q-0.46875 0 -0.90625 0.015625q-0.4375 0 -0.640625 0.03125l0 4.5l1.21875 0q1.34375 0 2.0 -0.53125q0.65625 -0.546875 0.65625 -1.78125q0 -2.234375 -2.328125 -2.234375zm12.937439 5.796875q0 0.984375 -0.28125 1.796875q-0.28125 0.796875 -0.78125 1.375q-0.5 0.5625 -1.203125 0.890625q-0.703125 0.3125 -1.53125 0.3125q-0.8125 0 -1.515625 -0.3125q-0.6875 -0.328125 -1.1875 -0.890625q-0.5 -0.578125 -0.78125 -1.375q-0.28125 -0.8125 -0.28125 -1.796875q0 -1.0 0.28125 -1.796875q0.28125 -0.8125 0.78125 -1.375q0.5 -0.578125 1.1875 -0.890625q0.703125 -0.3125 1.515625 -0.3125q0.828125 0 1.53125 0.3125q0.703125 0.3125 1.203125 0.890625q0.5 0.5625 0.78125 1.375q0.28125 0.796875 0.28125 1.796875zm-1.53125 0q0 -1.421875 -0.609375 -2.234375q-0.609375 -0.828125 -1.65625 -0.828125q-1.03125 0 -1.640625 0.828125q-0.59375 0.8125 -0.59375 2.234375q0 1.40625 0.59375 2.21875q0.609375 0.8125 1.640625 0.8125q1.046875 0 1.65625 -0.8125q0.609375 -0.8125 0.609375 -2.21875zm8.562439 2.078125q0 -0.4375 -0.375 -0.71875q-0.359375 -0.296875 -0.90625 -0.515625q-0.546875 -0.21875 -1.203125 -0.421875q-0.640625 -0.203125 -1.1875 -0.515625q-0.546875 -0.3125 -0.921875 -0.75q-0.375 -0.453125 -0.375 -1.171875q0 -1.015625 0.8125 -1.6875q0.828125 -0.671875 2.578125 -0.671875q0.6875 0 1.40625 0.09375q0.734375 0.09375 1.25 0.265625l-0.265625 1.328125q-0.140625 -0.078125 -0.390625 -0.15625q-0.25 -0.078125 -0.578125 -0.140625q-0.328125 -0.0625 -0.703125 -0.09375q-0.359375 -0.046875 -0.703125 -0.046875q-1.9375 0 -1.9375 1.0625q0 0.390625 0.359375 0.65625q0.375 0.25 0.921875 0.46875q0.5625 0.21875 1.203125 0.4375q0.65625 0.21875 1.21875 0.546875q0.5625 0.328125 0.921875 0.796875q0.375 0.453125 0.375 1.15625q0 1.125 -0.890625 1.75q-0.875 0.625 -2.78125 0.625q-0.859375 0 -1.578125 -0.15625q-0.71875 -0.140625 -1.375 -0.421875l0.28125 -1.359375q0.640625 0.296875 1.328125 0.484375q0.6875 0.1875 1.484375 0.1875q2.03125 0 2.03125 -1.03125zm7.062439 -6.265625l3.53125 0l0 1.25l-3.53125 0l0 3.890625q0 0.625 0.078125 1.03125q0.09375 0.390625 0.296875 0.640625q0.21875 0.234375 0.53125 0.328125q0.328125 0.078125 0.796875 0.078125q0.65625 0 1.046875 -0.09375q0.40625 -0.109375 0.765625 -0.296875l0.203125 1.265625q-0.25 0.109375 -0.796875 0.28125q-0.546875 0.1875 -1.359375 0.1875q-0.9375 0 -1.53125 -0.21875q-0.59375 -0.21875 -0.921875 -0.640625q-0.328125 -0.4375 -0.46875 -1.078125q-0.125 -0.640625 -0.125 -1.484375l0 -3.890625l-1.75 0l0 -1.25l1.75 0l0 -2.328125l1.484375 -0.25l0 2.578125zm8.843689 7.3125q1.125 0 1.71875 -0.421875q0.59375 -0.4375 0.59375 -1.296875q0 -0.53125 -0.21875 -0.890625q-0.203125 -0.375 -0.578125 -0.65625q-0.359375 -0.28125 -0.8125 -0.484375q-0.4375 -0.203125 -0.90625 -0.390625q-0.546875 -0.21875 -1.046875 -0.484375q-0.484375 -0.265625 -0.875 -0.625q-0.390625 -0.359375 -0.609375 -0.84375q-0.21875 -0.484375 -0.21875 -1.15625q0 -1.453125 0.90625 -2.265625q0.921875 -0.828125 2.5625 -0.828125q0.453125 0 0.890625 0.0625q0.4375 0.0625 0.8125 0.15625q0.390625 0.078125 0.6875 0.21875q0.296875 0.125 0.46875 0.25l-0.46875 1.234375q-0.359375 -0.21875 -0.984375 -0.421875q-0.625 -0.21875 -1.40625 -0.21875q-0.8125 0 -1.40625 0.40625q-0.59375 0.390625 -0.59375 1.203125q0 0.46875 0.171875 0.796875q0.171875 0.328125 0.46875 0.578125q0.296875 0.234375 0.6875 0.4375q0.40625 0.1875 0.875 0.390625q0.671875 0.28125 1.234375 0.578125q0.578125 0.28125 0.984375 0.6875q0.40625 0.390625 0.625 0.9375q0.234375 0.53125 0.234375 1.296875q0 1.46875 -0.984375 2.25q-0.984375 0.78125 -2.8125 0.78125q-0.59375 0 -1.125 -0.078125q-0.515625 -0.078125 -0.921875 -0.203125q-0.40625 -0.140625 -0.71875 -0.265625q-0.296875 -0.125 -0.46875 -0.234375l0.453125 -1.21875q0.359375 0.203125 1.0625 0.46875q0.703125 0.25 1.71875 0.25zm12.499939 0.8125q-0.484375 0.125 -1.28125 0.265625q-0.796875 0.15625 -1.890625 0.15625q-0.953125 0 -1.578125 -0.28125q-0.625 -0.28125 -1.03125 -0.796875q-0.390625 -0.515625 -0.5625 -1.21875q-0.15625 -0.703125 -0.15625 -1.546875l0 -4.703125l1.484375 0l0 4.375q0 1.546875 0.453125 2.203125q0.46875 0.640625 1.546875 0.640625q0.234375 0 0.46875 -0.015625q0.25 -0.015625 0.453125 -0.03125q0.21875 -0.03125 0.375 -0.0625q0.171875 -0.03125 0.234375 -0.046875l0 -7.0625l1.484375 0l0 8.125zm4.046814 -7.8125q0.28125 -0.15625 0.78125 -0.328125q0.515625 -0.171875 1.15625 -0.171875q0.84375 0 1.5 0.328125q0.671875 0.3125 1.125 0.890625q0.46875 0.578125 0.703125 1.390625q0.25 0.796875 0.25 1.765625q0 1.0 -0.296875 1.8125q-0.28125 0.8125 -0.8125 1.390625q-0.515625 0.5625 -1.25 0.875q-0.734375 0.296875 -1.640625 0.296875q-0.984375 0 -1.765625 -0.15625q-0.765625 -0.140625 -1.234375 -0.28125l0 -11.984375l1.484375 -0.25l0 4.421875zm0 6.75q0.34375 0.09375 0.6875 0.140625q0.34375 0.046875 0.65625 0.046875q1.234375 0 1.9375 -0.765625q0.703125 -0.765625 0.703125 -2.296875q0 -0.65625 -0.125 -1.21875q-0.125 -0.5625 -0.40625 -0.96875q-0.265625 -0.40625 -0.6875 -0.640625q-0.421875 -0.234375 -1.015625 -0.234375q-0.515625 0 -1.0 0.203125q-0.484375 0.203125 -0.75 0.4375l0 5.296875zm6.968689 -6.828125q1.078125 -0.40625 2.03125 -0.40625q0.53125 0 0.984375 0.15625q0.46875 0.15625 0.78125 0.46875q0.78125 -0.625 1.65625 -0.625q0.4375 0 0.8125 0.171875q0.390625 0.15625 0.6875 0.484375q0.296875 0.3125 0.484375 0.796875q0.1875 0.484375 0.1875 1.140625l0 5.9375l-1.359375 0l0 -5.96875q0 -0.65625 -0.296875 -1.0q-0.28125 -0.34375 -0.703125 -0.34375q-0.21875 0 -0.453125 0.109375q-0.234375 0.109375 -0.4375 0.34375q0.109375 0.421875 0.109375 0.921875l0 2.71875l-1.34375 0l0 -2.734375q0 -0.640625 -0.203125 -1.0q-0.203125 -0.359375 -0.78125 -0.359375q-0.359375 0 -0.796875 0.171875l0 7.140625l-1.359375 0l0 -8.125zm12.031189 -1.515625q-0.46875 0 -0.8125 -0.328125q-0.34375 -0.328125 -0.34375 -0.890625q0 -0.546875 0.34375 -0.875q0.34375 -0.328125 0.8125 -0.328125q0.484375 0 0.8125 0.328125q0.328125 0.328125 0.328125 0.875q0 0.5625 -0.328125 0.890625q-0.328125 0.328125 -0.8125 0.328125zm-0.375 2.53125l-2.421875 0l0 -1.25l3.890625 0l0 5.140625q0 1.234375 0.34375 1.65625q0.34375 0.421875 1.03125 0.421875q0.515625 0 0.953125 -0.125q0.4375 -0.125 0.703125 -0.265625l0.203125 1.265625q-0.109375 0.046875 -0.3125 0.140625q-0.1875 0.078125 -0.453125 0.140625q-0.25 0.078125 -0.578125 0.125q-0.3125 0.0625 -0.640625 0.0625q-0.796875 0 -1.328125 -0.21875q-0.515625 -0.21875 -0.828125 -0.640625q-0.3125 -0.4375 -0.4375 -1.078125q-0.125 -0.640625 -0.125 -1.484375l0 -3.890625zm9.984314 -1.25l3.53125 0l0 1.25l-3.53125 0l0 3.890625q0 0.625 0.078125 1.03125q0.09375 0.390625 0.296875 0.640625q0.21875 0.234375 0.53125 0.328125q0.328125 0.078125 0.796875 0.078125q0.65625 0 1.046875 -0.09375q0.40625 -0.109375 0.765625 -0.296875l0.203125 1.265625q-0.25 0.109375 -0.796875 0.28125q-0.546875 0.1875 -1.359375 0.1875q-0.9375 0 -1.53125 -0.21875q-0.59375 -0.21875 -0.921875 -0.640625q-0.328125 -0.4375 -0.46875 -1.078125q-0.125 -0.640625 -0.125 -1.484375l0 -3.890625l-1.75 0l0 -1.25l1.75 0l0 -2.328125l1.484375 -0.25l0 2.578125zm8.999939 0l3.53125 0l0 1.25l-3.53125 0l0 3.890625q0 0.625 0.078125 1.03125q0.09375 0.390625 0.296875 0.640625q0.21875 0.234375 0.53125 0.328125q0.328125 0.078125 0.796875 0.078125q0.65625 0 1.046875 -0.09375q0.40625 -0.109375 0.765625 -0.296875l0.203125 1.265625q-0.25 0.109375 -0.796875 0.28125q-0.546875 0.1875 -1.359375 0.1875q-0.9375 0 -1.53125 -0.21875q-0.59375 -0.21875 -0.921875 -0.640625q-0.328125 -0.4375 -0.46875 -1.078125q-0.125 -0.640625 -0.125 -1.484375l0 -3.890625l-1.75 0l0 -1.25l1.75 0l0 -2.328125l1.484375 -0.25l0 2.578125zm9.281189 -0.1875q1.703125 0 2.609375 1.0625q0.921875 1.046875 0.921875 3.1875l0 0.515625l-5.96875 0q0.078125 1.296875 0.84375 1.96875q0.765625 0.671875 2.15625 0.671875q0.796875 0 1.34375 -0.125q0.5625 -0.125 0.859375 -0.265625l0.1875 1.265625q-0.265625 0.140625 -0.96875 0.296875q-0.703125 0.171875 -1.578125 0.171875q-1.078125 0 -1.90625 -0.328125q-0.8125 -0.34375 -1.359375 -0.921875q-0.53125 -0.578125 -0.8125 -1.375q-0.265625 -0.796875 -0.265625 -1.734375q0 -1.125 0.34375 -1.953125q0.34375 -0.828125 0.890625 -1.359375q0.5625 -0.546875 1.265625 -0.8125q0.703125 -0.265625 1.4375 -0.265625zm2.015625 3.5625q0 -1.0625 -0.5625 -1.6875q-0.546875 -0.625 -1.46875 -0.625q-0.515625 0 -0.9375 0.203125q-0.421875 0.203125 -0.734375 0.53125q-0.3125 0.3125 -0.5 0.734375q-0.171875 0.40625 -0.21875 0.84375l4.421875 0zm8.562439 -1.609375q-0.265625 -0.234375 -0.75 -0.4375q-0.484375 -0.203125 -1.0 -0.203125q-0.59375 0 -1.015625 0.234375q-0.421875 0.234375 -0.703125 0.640625q-0.265625 0.40625 -0.390625 0.96875q-0.125 0.5625 -0.125 1.21875q0 1.453125 0.6875 2.25q0.6875 0.78125 1.78125 0.78125q0.5625 0 0.9375 -0.046875q0.390625 -0.046875 0.578125 -0.109375l0 -5.296875zm0 -5.625l1.484375 -0.25l0 12.234375q-0.484375 0.140625 -1.25 0.28125q-0.75 0.15625 -1.75 0.15625q-0.90625 0 -1.640625 -0.296875q-0.734375 -0.3125 -1.265625 -0.875q-0.515625 -0.578125 -0.8125 -1.390625q-0.28125 -0.8125 -0.28125 -1.8125q0 -0.96875 0.234375 -1.765625q0.25 -0.8125 0.71875 -1.390625q0.46875 -0.578125 1.125 -0.890625q0.65625 -0.328125 1.5 -0.328125q0.671875 0 1.171875 0.171875q0.5 0.15625 0.765625 0.328125l0 -4.171875zm4.187439 6.84375l0.71875 0q0.3125 0 0.546875 -0.140625q0.234375 -0.140625 0.375 -0.359375q0.15625 -0.234375 0.234375 -0.5q0.09375 -0.28125 0.09375 -0.578125l0 -2.890625q0 -0.671875 0.125 -1.171875q0.140625 -0.5 0.453125 -0.84375q0.328125 -0.359375 0.875 -0.53125q0.5625 -0.1875 1.390625 -0.1875l1.453125 0l0 1.171875l-1.53125 0q-0.75 0 -1.078125 0.34375q-0.3125 0.328125 -0.3125 1.234375l0 2.484375q0 1.203125 -0.359375 1.78125q-0.359375 0.5625 -0.828125 0.75q0.46875 0.21875 0.828125 0.8125q0.359375 0.59375 0.359375 1.734375l0 2.484375q0 0.890625 0.328125 1.234375q0.328125 0.34375 1.078125 0.34375l1.515625 0l0 1.171875l-1.453125 0q-0.828125 0 -1.390625 -0.1875q-0.546875 -0.171875 -0.875 -0.53125q-0.3125 -0.34375 -0.453125 -0.84375q-0.125 -0.5 -0.125 -1.171875l0 -2.890625q0 -0.28125 -0.09375 -0.546875q-0.078125 -0.28125 -0.234375 -0.5q-0.140625 -0.234375 -0.375 -0.375q-0.21875 -0.15625 -0.53125 -0.15625l-0.734375 0l0 -1.140625zm23.328003 1.21875q0 -1.453125 -0.6875 -2.25q-0.6875 -0.8125 -1.78125 -0.8125q-0.609375 0 -0.96875 0.0625q-0.34375 0.046875 -0.546875 0.125l0 5.265625q0.265625 0.234375 0.75 0.4375q0.484375 0.1875 1.0 0.1875q0.59375 0 1.015625 -0.234375q0.421875 -0.234375 0.6875 -0.625q0.28125 -0.40625 0.40625 -0.953125q0.125 -0.5625 0.125 -1.203125zm1.53125 0q0 0.953125 -0.25 1.75q-0.234375 0.796875 -0.703125 1.375q-0.453125 0.578125 -1.125 0.90625q-0.65625 0.328125 -1.5 0.328125q-0.671875 0 -1.171875 -0.171875q-0.5 -0.15625 -0.765625 -0.359375l0 3.296875l-1.484375 0l0 -11.0625q0.484375 -0.15625 1.25 -0.296875q0.765625 -0.140625 1.75 -0.140625q0.90625 0 1.640625 0.3125q0.734375 0.296875 1.25 0.875q0.53125 0.5625 0.8125 1.375q0.296875 0.796875 0.296875 1.8125zm8.999939 -0.015625q0 0.984375 -0.28125 1.796875q-0.28125 0.796875 -0.78125 1.375q-0.5 0.5625 -1.203125 0.890625q-0.703125 0.3125 -1.53125 0.3125q-0.8125 0 -1.515625 -0.3125q-0.6875 -0.328125 -1.1875 -0.890625q-0.5 -0.578125 -0.78125 -1.375q-0.28125 -0.8125 -0.28125 -1.796875q0 -1.0 0.28125 -1.796875q0.28125 -0.8125 0.78125 -1.375q0.5 -0.578125 1.1875 -0.890625q0.703125 -0.3125 1.515625 -0.3125q0.828125 0 1.53125 0.3125q0.703125 0.3125 1.203125 0.890625q0.5 0.5625 0.78125 1.375q0.28125 0.796875 0.28125 1.796875zm-1.53125 0q0 -1.421875 -0.609375 -2.234375q-0.609375 -0.828125 -1.65625 -0.828125q-1.03125 0 -1.640625 0.828125q-0.59375 0.8125 -0.59375 2.234375q0 1.40625 0.59375 2.21875q0.609375 0.8125 1.640625 0.8125q1.046875 0 1.65625 -0.8125q0.609375 -0.8125 0.609375 -2.21875zm8.562439 2.078125q0 -0.4375 -0.375 -0.71875q-0.359375 -0.296875 -0.90625 -0.515625q-0.546875 -0.21875 -1.203125 -0.421875q-0.640625 -0.203125 -1.1875 -0.515625q-0.546875 -0.3125 -0.921875 -0.75q-0.375 -0.453125 -0.375 -1.171875q0 -1.015625 0.8125 -1.6875q0.828125 -0.671875 2.578125 -0.671875q0.6875 0 1.40625 0.09375q0.734375 0.09375 1.25 0.265625l-0.265625 1.328125q-0.140625 -0.078125 -0.390625 -0.15625q-0.25 -0.078125 -0.578125 -0.140625q-0.328125 -0.0625 -0.703125 -0.09375q-0.359375 -0.046875 -0.703125 -0.046875q-1.9375 0 -1.9375 1.0625q0 0.390625 0.359375 0.65625q0.375 0.25 0.921875 0.46875q0.5625 0.21875 1.203125 0.4375q0.65625 0.21875 1.21875 0.546875q0.5625 0.328125 0.921875 0.796875q0.375 0.453125 0.375 1.15625q0 1.125 -0.890625 1.75q-0.875 0.625 -2.78125 0.625q-0.859375 0 -1.578125 -0.15625q-0.71875 -0.140625 -1.375 -0.421875l0.28125 -1.359375q0.640625 0.296875 1.328125 0.484375q0.6875 0.1875 1.484375 0.1875q2.03125 0 2.03125 -1.03125zm7.062439 -6.265625l3.53125 0l0 1.25l-3.53125 0l0 3.890625q0 0.625 0.078125 1.03125q0.09375 0.390625 0.296875 0.640625q0.21875 0.234375 0.53125 0.328125q0.328125 0.078125 0.796875 0.078125q0.65625 0 1.046875 -0.09375q0.40625 -0.109375 0.765625 -0.296875l0.203125 1.265625q-0.25 0.109375 -0.796875 0.28125q-0.546875 0.1875 -1.359375 0.1875q-0.9375 0 -1.53125 -0.21875q-0.59375 -0.21875 -0.921875 -0.640625q-0.328125 -0.4375 -0.46875 -1.078125q-0.125 -0.640625 -0.125 -1.484375l0 -3.890625l-1.75 0l0 -1.25l1.75 0l0 -2.328125l1.484375 -0.25l0 2.578125zm4.765564 10.0625l8.71875 0l0 1.265625l-8.71875 0l0 -1.265625zm12.624939 -11.34375q-0.46875 0 -0.8125 -0.328125q-0.34375 -0.328125 -0.34375 -0.890625q0 -0.546875 0.34375 -0.875q0.34375 -0.328125 0.8125 -0.328125q0.484375 0 0.8125 0.328125q0.328125 0.328125 0.328125 0.875q0 0.5625 -0.328125 0.890625q-0.328125 0.328125 -0.8125 0.328125zm-0.375 2.53125l-2.421875 0l0 -1.25l3.890625 0l0 5.140625q0 1.234375 0.34375 1.65625q0.34375 0.421875 1.03125 0.421875q0.515625 0 0.953125 -0.125q0.4375 -0.125 0.703125 -0.265625l0.203125 1.265625q-0.109375 0.046875 -0.3125 0.140625q-0.1875 0.078125 -0.453125 0.140625q-0.25 0.078125 -0.578125 0.125q-0.3125 0.0625 -0.640625 0.0625q-0.796875 0 -1.328125 -0.21875q-0.515625 -0.21875 -0.828125 -0.640625q-0.3125 -0.4375 -0.4375 -1.078125q-0.125 -0.640625 -0.125 -1.484375l0 -3.890625zm11.843689 0.515625q-0.265625 -0.234375 -0.75 -0.4375q-0.484375 -0.203125 -1.0 -0.203125q-0.59375 0 -1.015625 0.234375q-0.421875 0.234375 -0.703125 0.640625q-0.265625 0.40625 -0.390625 0.96875q-0.125 0.5625 -0.125 1.21875q0 1.453125 0.6875 2.25q0.6875 0.78125 1.78125 0.78125q0.5625 0 0.9375 -0.046875q0.390625 -0.046875 0.578125 -0.109375l0 -5.296875zm0 -5.625l1.484375 -0.25l0 12.234375q-0.484375 0.140625 -1.25 0.28125q-0.75 0.15625 -1.75 0.15625q-0.90625 0 -1.640625 -0.296875q-0.734375 -0.3125 -1.265625 -0.875q-0.515625 -0.578125 -0.8125 -1.390625q-0.28125 -0.8125 -0.28125 -1.8125q0 -0.96875 0.234375 -1.765625q0.25 -0.8125 0.71875 -1.390625q0.46875 -0.578125 1.125 -0.890625q0.65625 -0.328125 1.5 -0.328125q0.671875 0 1.171875 0.171875q0.5 0.15625 0.765625 0.328125l0 -4.171875zm8.593689 11.0625q0 0.546875 -0.359375 0.96875q-0.359375 0.40625 -0.953125 0.40625q-0.609375 0 -0.96875 -0.40625q-0.359375 -0.421875 -0.359375 -0.96875q0 -0.546875 0.359375 -0.953125q0.359375 -0.421875 0.96875 -0.421875q0.59375 0 0.953125 0.421875q0.359375 0.40625 0.359375 0.953125zm0 -6.0q0 0.546875 -0.359375 0.96875q-0.359375 0.40625 -0.953125 0.40625q-0.609375 0 -0.96875 -0.40625q-0.359375 -0.421875 -0.359375 -0.96875q0 -0.546875 0.359375 -0.953125q0.359375 -0.421875 0.96875 -0.421875q0.59375 0 0.953125 0.421875q0.359375 0.40625 0.359375 0.953125zm13.515503 -1.6875q0.921875 -0.359375 1.78125 -0.90625q0.875 -0.546875 1.609375 -1.390625l1.046875 0l0 9.875l2.109375 0l0 1.265625l-6.0 0l0 -1.265625l2.40625 0l0 -7.8125q-0.1875 0.1875 -0.46875 0.375q-0.28125 0.1875 -0.625 0.375q-0.328125 0.171875 -0.6875 0.34375q-0.359375 0.15625 -0.703125 0.265625l-0.46875 -1.125zm10.343689 10.265625q0.3125 -0.078125 0.625 -0.15625q0.328125 -0.0625 0.59375 -0.203125q0.265625 -0.125 0.484375 -0.34375q0.21875 -0.203125 0.34375 -0.5625q-0.578125 -0.046875 -0.84375 -0.4375q-0.25 -0.390625 -0.25 -0.765625q0 -0.71875 0.40625 -1.078125q0.40625 -0.375 0.921875 -0.375q0.671875 0 1.0 0.484375q0.34375 0.46875 0.34375 1.15625q0 0.515625 -0.203125 1.078125q-0.203125 0.578125 -0.625 1.0625q-0.421875 0.5 -1.0625 0.84375q-0.625 0.359375 -1.484375 0.46875l-0.25 -1.171875zm18.078003 -9.46875q0.28125 -0.15625 0.78125 -0.328125q0.515625 -0.171875 1.15625 -0.171875q0.84375 0 1.5 0.328125q0.671875 0.3125 1.125 0.890625q0.46875 0.578125 0.703125 1.390625q0.25 0.796875 0.25 1.765625q0 1.0 -0.296875 1.8125q-0.28125 0.8125 -0.8125 1.390625q-0.515625 0.5625 -1.25 0.875q-0.734375 0.296875 -1.640625 0.296875q-0.984375 0 -1.765625 -0.15625q-0.765625 -0.140625 -1.234375 -0.28125l0 -11.984375l1.484375 -0.25l0 4.421875zm0 6.75q0.34375 0.09375 0.6875 0.140625q0.34375 0.046875 0.65625 0.046875q1.234375 0 1.9375 -0.765625q0.703125 -0.765625 0.703125 -2.296875q0 -0.65625 -0.125 -1.21875q-0.125 -0.5625 -0.40625 -0.96875q-0.265625 -0.40625 -0.6875 -0.640625q-0.421875 -0.234375 -1.015625 -0.234375q-0.515625 0 -1.0 0.203125q-0.484375 0.203125 -0.75 0.4375l0 5.296875zm14.515564 -2.875q0 0.984375 -0.28125 1.796875q-0.28125 0.796875 -0.78125 1.375q-0.5 0.5625 -1.203125 0.890625q-0.703125 0.3125 -1.53125 0.3125q-0.8125 0 -1.515625 -0.3125q-0.6875 -0.328125 -1.1875 -0.890625q-0.5 -0.578125 -0.78125 -1.375q-0.28125 -0.8125 -0.28125 -1.796875q0 -1.0 0.28125 -1.796875q0.28125 -0.8125 0.78125 -1.375q0.5 -0.578125 1.1875 -0.890625q0.703125 -0.3125 1.515625 -0.3125q0.828125 0 1.53125 0.3125q0.703125 0.3125 1.203125 0.890625q0.5 0.5625 0.78125 1.375q0.28125 0.796875 0.28125 1.796875zm-1.53125 0q0 -1.421875 -0.609375 -2.234375q-0.609375 -0.828125 -1.65625 -0.828125q-1.03125 0 -1.640625 0.828125q-0.59375 0.8125 -0.59375 2.234375q0 1.40625 0.59375 2.21875q0.609375 0.8125 1.640625 0.8125q1.046875 0 1.65625 -0.8125q0.609375 -0.8125 0.609375 -2.21875zm8.484314 -2.421875q-0.265625 -0.234375 -0.75 -0.4375q-0.484375 -0.203125 -1.0 -0.203125q-0.59375 0 -1.015625 0.234375q-0.421875 0.234375 -0.703125 0.640625q-0.265625 0.40625 -0.390625 0.96875q-0.125 0.5625 -0.125 1.21875q0 1.453125 0.6875 2.25q0.6875 0.78125 1.78125 0.78125q0.5625 0 0.9375 -0.046875q0.390625 -0.046875 0.578125 -0.109375l0 -5.296875zm0 -5.625l1.484375 -0.25l0 12.234375q-0.484375 0.140625 -1.25 0.28125q-0.75 0.15625 -1.75 0.15625q-0.90625 0 -1.640625 -0.296875q-0.734375 -0.3125 -1.265625 -0.875q-0.515625 -0.578125 -0.8125 -1.390625q-0.28125 -0.8125 -0.28125 -1.8125q0 -0.96875 0.234375 -1.765625q0.25 -0.8125 0.71875 -1.390625q0.46875 -0.578125 1.125 -0.890625q0.65625 -0.328125 1.5 -0.328125q0.671875 0 1.171875 0.171875q0.5 0.15625 0.765625 0.328125l0 -4.171875zm3.687439 13.78125q0.15625 0.09375 0.453125 0.140625q0.296875 0.0625 0.546875 0.0625q0.890625 0 1.375 -0.390625q0.5 -0.390625 0.921875 -1.265625q-1.015625 -1.90625 -1.90625 -4.09375q-0.875 -2.1875 -1.453125 -4.375l1.625 0q0.171875 0.734375 0.421875 1.578125q0.25 0.828125 0.546875 1.71875q0.3125 0.875 0.65625 1.765625q0.359375 0.890625 0.75 1.6875q0.28125 -0.828125 0.53125 -1.625q0.265625 -0.8125 0.46875 -1.625q0.21875 -0.828125 0.4375 -1.671875q0.21875 -0.859375 0.453125 -1.828125l1.546875 0q-0.578125 2.34375 -1.296875 4.546875q-0.703125 2.1875 -1.515625 4.0625q-0.296875 0.71875 -0.65625 1.234375q-0.34375 0.53125 -0.765625 0.875q-0.40625 0.34375 -0.9375 0.5q-0.515625 0.171875 -1.1875 0.171875q-0.328125 0 -0.734375 -0.09375q-0.40625 -0.09375 -0.5625 -0.171875l0.28125 -1.203125zm13.906189 -2.71875q0 0.546875 -0.359375 0.96875q-0.359375 0.40625 -0.953125 0.40625q-0.609375 0 -0.96875 -0.40625q-0.359375 -0.421875 -0.359375 -0.96875q0 -0.546875 0.359375 -0.953125q0.359375 -0.421875 0.96875 -0.421875q0.59375 0 0.953125 0.421875q0.359375 0.40625 0.359375 0.953125zm0 -6.0q0 0.546875 -0.359375 0.96875q-0.359375 0.40625 -0.953125 0.40625q-0.609375 0 -0.96875 -0.40625q-0.359375 -0.421875 -0.359375 -0.96875q0 -0.546875 0.359375 -0.953125q0.359375 -0.421875 0.96875 -0.421875q0.59375 0 0.953125 0.421875q0.359375 0.40625 0.359375 0.953125zm15.874878 -5.0625l0 0.8125q0 0.78125 -0.09375 1.796875q-0.078125 1.015625 -0.21875 1.875l-0.765625 0q-0.125 -0.859375 -0.21875 -1.875q-0.078125 -1.015625 -0.078125 -1.828125l0 -0.78125l1.375 0zm2.96875 0l0 0.8125q0 0.78125 -0.09375 1.796875q-0.078125 1.015625 -0.203125 1.875l-0.765625 0q-0.140625 -0.859375 -0.234375 -1.875q-0.078125 -1.015625 -0.078125 -1.828125l0 -0.78125l1.375 0zm9.046814 1.078125l1.46875 0l0 11.140625l-1.46875 0l0 -5.1875l-4.4375 0l0 5.1875l-1.46875 0l0 -11.140625l1.46875 0l0 4.703125l4.4375 0l0 -4.703125zm6.937439 2.59375q1.703125 0 2.609375 1.0625q0.921875 1.046875 0.921875 3.1875l0 0.515625l-5.96875 0q0.078125 1.296875 0.84375 1.96875q0.765625 0.671875 2.15625 0.671875q0.796875 0 1.34375 -0.125q0.5625 -0.125 0.859375 -0.265625l0.1875 1.265625q-0.265625 0.140625 -0.96875 0.296875q-0.703125 0.171875 -1.578125 0.171875q-1.078125 0 -1.90625 -0.328125q-0.8125 -0.34375 -1.359375 -0.921875q-0.53125 -0.578125 -0.8125 -1.375q-0.265625 -0.796875 -0.265625 -1.734375q0 -1.125 0.34375 -1.953125q0.34375 -0.828125 0.890625 -1.359375q0.5625 -0.546875 1.265625 -0.8125q0.703125 -0.265625 1.4375 -0.265625zm2.015625 3.5625q0 -1.0625 -0.5625 -1.6875q-0.546875 -0.625 -1.46875 -0.625q-0.515625 0 -0.9375 0.203125q-0.421875 0.203125 -0.734375 0.53125q-0.3125 0.3125 -0.5 0.734375q-0.171875 0.40625 -0.21875 0.84375l4.421875 0zm8.406189 5.1875q-0.78125 0 -1.3125 -0.21875q-0.515625 -0.21875 -0.828125 -0.640625q-0.296875 -0.4375 -0.421875 -1.078125q-0.125 -0.640625 -0.125 -1.484375l0 -7.90625l-2.421875 0l0 -1.265625l3.890625 0l0 9.171875q0 0.625 0.078125 1.03125q0.078125 0.390625 0.25 0.640625q0.171875 0.234375 0.421875 0.328125q0.265625 0.078125 0.59375 0.078125q0.53125 0 0.96875 -0.125q0.453125 -0.125 0.71875 -0.265625l0.203125 1.265625q-0.109375 0.046875 -0.3125 0.140625q-0.1875 0.078125 -0.453125 0.140625q-0.265625 0.078125 -0.59375 0.125q-0.3125 0.0625 -0.65625 0.0625zm8.999939 0q-0.78125 0 -1.3125 -0.21875q-0.515625 -0.21875 -0.828125 -0.640625q-0.296875 -0.4375 -0.421875 -1.078125q-0.125 -0.640625 -0.125 -1.484375l0 -7.90625l-2.421875 0l0 -1.265625l3.890625 0l0 9.171875q0 0.625 0.078125 1.03125q0.078125 0.390625 0.25 0.640625q0.171875 0.234375 0.421875 0.328125q0.265625 0.078125 0.59375 0.078125q0.53125 0 0.96875 -0.125q0.453125 -0.125 0.71875 -0.265625l0.203125 1.265625q-0.109375 0.046875 -0.3125 0.140625q-0.1875 0.078125 -0.453125 0.140625q-0.265625 0.078125 -0.59375 0.125q-0.3125 0.0625 -0.65625 0.0625zm11.203064 -4.375q0 0.984375 -0.28125 1.796875q-0.28125 0.796875 -0.78125 1.375q-0.5 0.5625 -1.203125 0.890625q-0.703125 0.3125 -1.53125 0.3125q-0.8125 0 -1.515625 -0.3125q-0.6875 -0.328125 -1.1875 -0.890625q-0.5 -0.578125 -0.78125 -1.375q-0.28125 -0.8125 -0.28125 -1.796875q0 -1.0 0.28125 -1.796875q0.28125 -0.8125 0.78125 -1.375q0.5 -0.578125 1.1875 -0.890625q0.703125 -0.3125 1.515625 -0.3125q0.828125 0 1.53125 0.3125q0.703125 0.3125 1.203125 0.890625q0.5 0.5625 0.78125 1.375q0.28125 0.796875 0.28125 1.796875zm-1.53125 0q0 -1.421875 -0.609375 -2.234375q-0.609375 -0.828125 -1.65625 -0.828125q-1.03125 0 -1.640625 0.828125q-0.59375 0.8125 -0.59375 2.234375q0 1.40625 0.59375 2.21875q0.609375 0.8125 1.640625 0.8125q1.046875 0 1.65625 -0.8125q0.609375 -0.8125 0.609375 -2.21875zm5.953064 -8.046875l0 0.8125q0 0.78125 -0.09375 1.796875q-0.078125 1.015625 -0.21875 1.875l-0.765625 0q-0.125 -0.859375 -0.21875 -1.875q-0.078125 -1.015625 -0.078125 -1.828125l0 -0.78125l1.375 0zm2.96875 0l0 0.8125q0 0.78125 -0.09375 1.796875q-0.078125 1.015625 -0.203125 1.875l-0.765625 0q-0.140625 -0.859375 -0.234375 -1.875q-0.078125 -1.015625 -0.078125 -1.828125l0 -0.78125l1.375 0zm18.906128 7.984375l-0.71875 0q-0.3125 0 -0.53125 0.140625q-0.21875 0.140625 -0.375 0.359375q-0.15625 0.21875 -0.234375 0.5q-0.078125 0.28125 -0.078125 0.578125l0 2.890625q0 0.671875 -0.140625 1.171875q-0.140625 0.5 -0.46875 0.84375q-0.328125 0.359375 -0.890625 0.53125q-0.546875 0.1875 -1.375 0.1875l-1.453125 0l0 -1.171875l1.53125 0q0.75 0 1.0625 -0.34375q0.328125 -0.34375 0.328125 -1.234375l0 -2.484375q0 -1.203125 0.359375 -1.765625q0.359375 -0.578125 0.828125 -0.78125q-0.46875 -0.203125 -0.828125 -0.796875q-0.359375 -0.59375 -0.359375 -1.734375l0 -2.484375q0 -0.90625 -0.328125 -1.234375q-0.328125 -0.34375 -1.078125 -0.34375l-1.515625 0l0 -1.171875l1.453125 0q0.828125 0 1.375 0.1875q0.5625 0.171875 0.890625 0.53125q0.328125 0.34375 0.46875 0.84375q0.140625 0.5 0.140625 1.171875l0 2.890625q0 0.28125 0.0625 0.5625q0.078125 0.265625 0.21875 0.5q0.15625 0.21875 0.375 0.375q0.234375 0.140625 0.546875 0.140625l0.734375 0l0 1.140625z" fill-rule="nonzero"></path></g></svg>

