<?xml version="1.0" standalone="yes"?>

<svg version="1.1" viewBox="0.0 0.0 963.8530183727034 351.3333333333333" fill="none" stroke="none" stroke-linecap="square" stroke-miterlimit="10" xmlns="http://www.w3.org/2000/svg" xmlns:xlink="http://www.w3.org/1999/xlink"><clipPath id="p.0"><path d="m0 0l963.853 0l0 351.33334l-963.853 0l0 -351.33334z" clip-rule="nonzero"></path></clipPath><g clip-path="url(#p.0)"><path fill="#000000" fill-opacity="0.0" d="m0 0l963.853 0l0 351.33334l-963.853 0z" fill-rule="evenodd"></path><path fill="#cccccc" d="m204.62134 90.52485l0 0c0 -39.26005 31.826569 -71.08661 71.08661 -71.08661l0 0c18.853363 0 36.93451 7.48946 50.26584 20.820787c13.331329 13.331326 20.8208 31.412483 20.8208 50.265823l0 0c0 39.260063 -31.826569 71.08662 -71.08664 71.08662l0 0c-39.26004 0 -71.08661 -31.826553 -71.08661 -71.08662z" fill-rule="evenodd"></path><path stroke="#000000" stroke-width="1.0" stroke-linejoin="round" stroke-linecap="butt" d="m204.62134 90.52485l0 0c0 -39.26005 31.826569 -71.08661 71.08661 -71.08661l0 0c18.853363 0 36.93451 7.48946 50.26584 20.820787c13.331329 13.331326 20.8208 31.412483 20.8208 50.265823l0 0c0 39.260063 -31.826569 71.08662 -71.08664 71.08662l0 0c-39.26004 0 -71.08661 -31.826553 -71.08661 -71.08662z" fill-rule="evenodd"></path><path fill="#000000" d="m245.09468 82.6661l2.234375 0.71875q-0.515625 1.875 -1.71875 2.796875q-1.1875 0.90625 -3.03125 0.90625q-2.28125 0 -3.75 -1.5625q-1.46875 -1.5625 -1.46875 -4.265625q0 -2.859375 1.46875 -4.4375q1.484375 -1.59375 3.890625 -1.59375q2.09375 0 3.40625 1.25q0.78125 0.734375 1.171875 2.109375l-2.28125 0.546875q-0.203125 -0.890625 -0.859375 -1.40625q-0.640625 -0.515625 -1.5625 -0.515625q-1.265625 0 -2.0625 0.921875q-0.796875 0.90625 -0.796875 2.953125q0 2.171875 0.78125 3.09375q0.78125 0.921875 2.03125 0.921875q0.921875 0 1.578125 -0.578125q0.671875 -0.59375 0.96875 -1.859375zm3.6953125 -0.046875q0 -1.09375 0.53125 -2.109375q0.546875 -1.03125 1.53125 -1.5625q1.0 -0.546875 2.21875 -0.546875q1.875 0 3.0781097 1.21875q1.203125 1.21875 1.203125 3.09375q0 1.875 -1.21875 3.125q-1.2031097 1.234375 -3.0468597 1.234375q-1.140625 0 -2.1875 -0.515625q-1.03125 -0.515625 -1.578125 -1.515625q-0.53125 -1.0 -0.53125 -2.421875zm2.25 0.109375q0 1.234375 0.578125 1.890625q0.59375 0.65625 1.453125 0.65625q0.859375 0 1.4375 -0.65625q0.59375 -0.65625 0.59375 -1.90625q0 -1.21875 -0.59375 -1.875q-0.578125 -0.65625 -1.4375 -0.65625q-0.859375 0 -1.453125 0.65625q-0.578125 0.65625 -0.578125 1.890625zm7.8671722 -4.140625l2.03125 0l0 1.125q1.078125 -1.3125 2.578125 -1.3125q0.796875 0 1.375 0.328125q0.59375 0.328125 0.96875 0.984375q0.546875 -0.65625 1.171875 -0.984375q0.640625 -0.328125 1.359375 -0.328125q0.921875 0 1.546875 0.375q0.640625 0.359375 0.953125 1.078125q0.21875 0.53125 0.21875 1.71875l0 5.3125l-2.1875 0l0 -4.75q0 -1.234375 -0.234375 -1.59375q-0.296875 -0.46875 -0.9375 -0.46875q-0.453125 0 -0.859375 0.28125q-0.40625 0.28125 -0.59375 0.828125q-0.171875 0.546875 -0.171875 1.71875l0 3.984375l-2.203125 0l0 -4.546875q0 -1.21875 -0.125 -1.5625q-0.109375 -0.359375 -0.359375 -0.53125q-0.234375 -0.171875 -0.65625 -0.171875q-0.515625 0 -0.921875 0.28125q-0.40625 0.265625 -0.578125 0.78125q-0.171875 0.515625 -0.171875 1.71875l0 4.03125l-2.203125 0l0 -8.296875zm14.2265625 0l2.03125 0l0 1.125q1.078125 -1.3125 2.578125 -1.3125q0.796875 0 1.375 0.328125q0.59375 0.328125 0.96875 0.984375q0.546875 -0.65625 1.171875 -0.984375q0.640625 -0.328125 1.359375 -0.328125q0.921875 0 1.546875 0.375q0.640625 0.359375 0.953125 1.078125q0.21875 0.53125 0.21875 1.71875l0 5.3125l-2.1875 0l0 -4.75q0 -1.234375 -0.234375 -1.59375q-0.296875 -0.46875 -0.9375 -0.46875q-0.453125 0 -0.859375 0.28125q-0.40625 0.28125 -0.59375 0.828125q-0.171875 0.546875 -0.171875 1.71875l0 3.984375l-2.203125 0l0 -4.546875q0 -1.21875 -0.125 -1.5625q-0.109375 -0.359375 -0.359375 -0.53125q-0.234375 -0.171875 -0.65625 -0.171875q-0.515625 0 -0.921875 0.28125q-0.40625 0.265625 -0.578125 0.78125q-0.171875 0.515625 -0.171875 1.71875l0 4.03125l-2.203125 0l0 -8.296875zm16.039062 2.53125l-2.0 -0.359375q0.34375 -1.203125 1.15625 -1.78125q0.828125 -0.578125 2.4375 -0.578125q1.46875 0 2.1875 0.34375q0.71875 0.34375 1.015625 0.890625q0.296875 0.53125 0.296875 1.953125l-0.03125 2.5625q0 1.09375 0.109375 1.625q0.109375 0.515625 0.390625 1.109375l-2.171875 0q-0.078125 -0.21875 -0.203125 -0.65625q-0.0625 -0.1875 -0.078125 -0.25q-0.5625 0.546875 -1.203125 0.828125q-0.640625 0.265625 -1.375 0.265625q-1.28125 0 -2.015625 -0.6875q-0.734375 -0.703125 -0.734375 -1.765625q0 -0.703125 0.328125 -1.25q0.34375 -0.5625 0.9375 -0.84375q0.609375 -0.296875 1.75 -0.515625q1.546875 -0.296875 2.140625 -0.546875l0 -0.21875q0 -0.625 -0.3125 -0.890625q-0.3125 -0.28125 -1.1875 -0.28125q-0.578125 0 -0.90625 0.234375q-0.328125 0.234375 -0.53125 0.8125zm2.9375 1.78125q-0.421875 0.140625 -1.34375 0.34375q-0.90625 0.1875 -1.1875 0.375q-0.4375 0.296875 -0.4375 0.765625q0 0.46875 0.34375 0.8125q0.34375 0.328125 0.875 0.328125q0.59375 0 1.140625 -0.390625q0.390625 -0.296875 0.515625 -0.734375q0.09375 -0.28125 0.09375 -1.0625l0 -0.4375zm11.8671875 3.984375l-2.203125 0l0 -4.234375q0 -1.34375 -0.140625 -1.734375q-0.140625 -0.40625 -0.453125 -0.625q-0.3125 -0.21875 -0.765625 -0.21875q-0.5625 0 -1.015625 0.3125q-0.453125 0.3125 -0.625 0.828125q-0.171875 0.515625 -0.171875 1.90625l0 3.765625l-2.1875 0l0 -8.296875l2.03125 0l0 1.21875q1.09375 -1.40625 2.734375 -1.40625q0.734375 0 1.328125 0.265625q0.609375 0.25 0.90625 0.65625q0.3125 0.40625 0.4375 0.921875q0.125 0.515625 0.125 1.484375l0 5.15625zm9.8359375 0l-2.046875 0l0 -1.21875q-0.5 0.703125 -1.203125 1.0625q-0.6875 0.34375 -1.390625 0.34375q-1.421875 0 -2.453125 -1.15625q-1.015625 -1.15625 -1.015625 -3.21875q0 -2.109375 0.984375 -3.203125q1.0 -1.09375 2.515625 -1.09375q1.390625 0 2.40625 1.15625l0 -4.125l2.203125 0l0 11.453125zm-5.859375 -4.328125q0 1.328125 0.359375 1.921875q0.53125 0.859375 1.484375 0.859375q0.765625 0 1.296875 -0.640625q0.53125 -0.65625 0.53125 -1.9375q0 -1.421875 -0.515625 -2.046875q-0.515625 -0.640625 -1.328125 -0.640625q-0.78125 0 -1.3125 0.625q-0.515625 0.625 -0.515625 1.859375z" fill-rule="nonzero"></path><path fill="#000000" d="m247.09468 105.88485l0 -11.453125l2.3125 0l0 4.5l4.53125 0l0 -4.5l2.3124847 0l0 11.453125l-2.3124847 0l0 -5.015625l-4.53125 0l0 5.015625l-2.3125 0zm13.179672 -5.765625l-2.0 -0.359375q0.34375 -1.203125 1.15625 -1.78125q0.828125 -0.578125 2.4375 -0.578125q1.46875 0 2.1875 0.34375q0.71875 0.34375 1.015625 0.890625q0.296875 0.53125 0.296875 1.953125l-0.03125 2.5625q0 1.09375 0.109375 1.625q0.109375 0.515625 0.390625 1.109375l-2.171875 0q-0.078125 -0.21875 -0.203125 -0.65625q-0.0625 -0.1875 -0.078125 -0.25q-0.5625 0.546875 -1.203125 0.828125q-0.640625 0.265625 -1.375 0.265625q-1.28125 0 -2.015625 -0.6875q-0.734375 -0.703125 -0.734375 -1.765625q0 -0.703125 0.328125 -1.25q0.34375 -0.5625 0.9375 -0.84375q0.609375 -0.296875 1.75 -0.515625q1.546875 -0.296875 2.140625 -0.546875l0 -0.21875q0 -0.625 -0.3125 -0.890625q-0.3125 -0.28125 -1.1875 -0.28125q-0.578125 0 -0.90625 0.234375q-0.328125 0.234375 -0.53125 0.8125zm2.9375 1.78125q-0.421875 0.140625 -1.34375 0.34375q-0.90625 0.1875 -1.1875 0.375q-0.4375 0.296875 -0.4375 0.765625q0 0.46875 0.34375 0.8125q0.34375 0.328125 0.875 0.328125q0.59375 0 1.140625 -0.390625q0.390625 -0.296875 0.515625 -0.734375q0.09375 -0.28125 0.09375 -1.0625l0 -0.4375zm11.8671875 3.984375l-2.203125 0l0 -4.234375q0 -1.34375 -0.140625 -1.734375q-0.140625 -0.40625 -0.453125 -0.625q-0.3125 -0.21875 -0.765625 -0.21875q-0.5625 0 -1.015625 0.3125q-0.453125 0.3125 -0.625 0.828125q-0.171875 0.515625 -0.171875 1.90625l0 3.765625l-2.1875 0l0 -8.296875l2.03125 0l0 1.21875q1.09375 -1.40625 2.734375 -1.40625q0.734375 0 1.328125 0.265625q0.609375 0.25 0.90625 0.65625q0.3125 0.40625 0.4375 0.921875q0.125 0.515625 0.125 1.484375l0 5.15625zm9.8359375 0l-2.046875 0l0 -1.21875q-0.5 0.703125 -1.203125 1.0625q-0.6875 0.34375 -1.390625 0.34375q-1.421875 0 -2.453125 -1.15625q-1.015625 -1.15625 -1.015625 -3.21875q0 -2.109375 0.984375 -3.203125q1.0 -1.09375 2.515625 -1.09375q1.390625 0 2.40625 1.15625l0 -4.125l2.203125 0l0 11.453125zm-5.859375 -4.328125q0 1.328125 0.359375 1.921875q0.53125 0.859375 1.484375 0.859375q0.765625 0 1.296875 -0.640625q0.53125 -0.65625 0.53125 -1.9375q0 -1.421875 -0.515625 -2.046875q-0.515625 -0.640625 -1.328125 -0.640625q-0.78125 0 -1.3125 0.625q-0.515625 0.625 -0.515625 1.859375zm8.0234375 4.328125l0 -11.453125l2.1875 0l0 11.453125l-2.1875 0zm9.2421875 -2.640625l2.1875 0.359375q-0.421875 1.203125 -1.328125 1.84375q-0.90625 0.625 -2.28125 0.625q-2.15625 0 -3.203125 -1.421875q-0.8125 -1.125 -0.8125 -2.859375q0 -2.0625 1.078125 -3.21875q1.078125 -1.171875 2.71875 -1.171875q1.859375 0 2.921875 1.21875q1.078125 1.21875 1.03125 3.75l-5.5 0q0.015625 0.96875 0.515625 1.515625q0.515625 0.546875 1.28125 0.546875q0.515625 0 0.859375 -0.28125q0.359375 -0.28125 0.53125 -0.90625zm0.125 -2.21875q-0.015625 -0.953125 -0.484375 -1.453125q-0.46875 -0.5 -1.140625 -0.5q-0.71875 0 -1.1875 0.53125q-0.46875 0.515625 -0.46875 1.421875l3.28125 0zm6.0703125 4.859375l-2.1875 0l0 -8.296875l2.03125 0l0 1.171875q0.53125 -0.828125 0.9375 -1.09375q0.421875 -0.265625 0.953125 -0.265625q0.75 0 1.453125 0.40625l-0.6875 1.921875q-0.546875 -0.359375 -1.03125 -0.359375q-0.453125 0 -0.78125 0.25q-0.3125 0.25 -0.5 0.921875q-0.1875 0.65625 -0.1875 2.78125l0 2.5625z" fill-rule="nonzero"></path><path fill="#cccccc" d="m401.82993 90.52485l0 0c0 -39.26005 31.826569 -71.08661 71.08661 -71.08661l0 0c18.853333 0 36.93451 7.48946 50.26584 20.820787c13.331299 13.331326 20.8208 31.412483 20.8208 50.265823l0 0c0 39.260063 -31.8266 71.08662 -71.08664 71.08662l0 0c-39.26004 0 -71.08661 -31.826553 -71.08661 -71.08662z" fill-rule="evenodd"></path><path stroke="#000000" stroke-width="1.0" stroke-linejoin="round" stroke-linecap="butt" d="m401.82993 90.52485l0 0c0 -39.26005 31.826569 -71.08661 71.08661 -71.08661l0 0c18.853333 0 36.93451 7.48946 50.26584 20.820787c13.331299 13.331326 20.8208 31.412483 20.8208 50.265823l0 0c0 39.260063 -31.8266 71.08662 -71.08664 71.08662l0 0c-39.26004 0 -71.08661 -31.826553 -71.08661 -71.08662z" fill-rule="evenodd"></path><path fill="#000000" d="m442.5259 96.38485l0 -11.453125l8.484375 0l0 1.9375l-6.171875 0l0 2.53125l5.75 0l0 1.9375l-5.75 0l0 3.109375l6.390625 0l0 1.9375l-8.703125 0zm12.9375 0l-3.34375 -8.296875l2.296875 0l1.5625 4.234375l0.453125 1.40625q0.1875 -0.53125 0.234375 -0.703125q0.109375 -0.359375 0.234375 -0.703125l1.578125 -4.234375l2.25 0l-3.296875 8.296875l-1.96875 0zm11.4140625 -2.640625l2.1875 0.359375q-0.421875 1.203125 -1.328125 1.84375q-0.90625 0.625 -2.28125 0.625q-2.15625 0 -3.203125 -1.421875q-0.8125 -1.125 -0.8125 -2.859375q0 -2.0625 1.078125 -3.21875q1.078125 -1.171875 2.71875 -1.171875q1.859375 0 2.921875 1.21875q1.078125 1.21875 1.03125 3.75l-5.5 0q0.015625 0.96875 0.515625 1.515625q0.515625 0.546875 1.28125 0.546875q0.515625 0 0.859375 -0.28125q0.359375 -0.28125 0.53125 -0.90625zm0.125 -2.21875q-0.015625 -0.953125 -0.484375 -1.453125q-0.46875 -0.5 -1.140625 -0.5q-0.71875 0 -1.1875 0.53125q-0.46875 0.515625 -0.46875 1.421875l3.28125 0zm11.5234375 4.859375l-2.203125 0l0 -4.234375q0 -1.34375 -0.140625 -1.734375q-0.140625 -0.40625 -0.453125 -0.625q-0.3125 -0.21875 -0.765625 -0.21875q-0.5625 0 -1.015625 0.3125q-0.453125 0.3125 -0.625 0.828125q-0.171875 0.515625 -0.171875 1.90625l0 3.765625l-2.1875 0l0 -8.296875l2.03125 0l0 1.21875q1.09375 -1.40625 2.734375 -1.40625q0.734375 0 1.328125 0.265625q0.609375 0.25 0.90625 0.65625q0.3125 0.40625 0.4375 0.921875q0.125 0.515625 0.125 1.484375l0 5.15625zm6.0234375 -8.296875l0 1.75l-1.5 0l0 3.34375q0 1.015625 0.046875 1.1875q0.046875 0.15625 0.1875 0.265625q0.15625 0.109375 0.375 0.109375q0.3125 0 0.890625 -0.203125l0.1875 1.703125q-0.765625 0.328125 -1.734375 0.328125q-0.59375 0 -1.078125 -0.203125q-0.46875 -0.203125 -0.703125 -0.515625q-0.21875 -0.3125 -0.296875 -0.859375q-0.078125 -0.375 -0.078125 -1.546875l0 -3.609375l-1.0 0l0 -1.75l1.0 0l0 -1.65625l2.203125 -1.28125l0 2.9375l1.5 0zm5.171875 11.671875l-1.515625 0q-1.1875 -1.8125 -1.8125 -3.75q-0.625 -1.953125 -0.625 -3.78125q0 -2.25 0.765625 -4.265625q0.671875 -1.75 1.703125 -3.234375l1.5 0q-1.0625 2.375 -1.46875 4.03125q-0.40625 1.65625 -0.40625 3.515625q0 1.28125 0.234375 2.625q0.25 1.34375 0.65625 2.5625q0.28125 0.796875 0.96875 2.296875zm0.90625 -5.75l2.203125 -0.328125q0.140625 0.640625 0.5625 0.96875q0.4375 0.328125 1.21875 0.328125q0.84375 0 1.28125 -0.3125q0.28125 -0.21875 0.28125 -0.578125q0 -0.25 -0.15625 -0.421875q-0.15625 -0.15625 -0.734375 -0.28125q-2.65625 -0.59375 -3.359375 -1.078125q-0.984375 -0.671875 -0.984375 -1.859375q0 -1.078125 0.84375 -1.8125q0.859375 -0.734375 2.640625 -0.734375q1.703125 0 2.53125 0.5625q0.828125 0.546875 1.140625 1.625l-2.0625 0.390625q-0.140625 -0.484375 -0.515625 -0.734375q-0.359375 -0.265625 -1.046875 -0.265625q-0.875 0 -1.25 0.234375q-0.25 0.171875 -0.25 0.453125q0 0.234375 0.21875 0.390625q0.296875 0.21875 2.046875 0.625q1.765625 0.390625 2.453125 0.96875q0.6875 0.59375 0.6875 1.640625q0 1.140625 -0.953125 1.96875q-0.953125 0.8125 -2.8125 0.8125q-1.703125 0 -2.6875 -0.6875q-0.984375 -0.6875 -1.296875 -1.875zm9.0703125 5.75q0.640625 -1.390625 0.90625 -2.140625q0.265625 -0.734375 0.484375 -1.703125q0.234375 -0.984375 0.34375 -1.84375q0.109375 -0.875 0.109375 -1.796875q0 -1.859375 -0.40625 -3.515625q-0.390625 -1.65625 -1.453125 -4.03125l1.484375 0q1.1875 1.6875 1.828125 3.578125q0.65625 1.875 0.65625 3.8125q0 1.625 -0.515625 3.5q-0.578125 2.09375 -1.921875 4.140625l-1.515625 0z" fill-rule="nonzero"></path><path fill="#cccccc" d="m599.0385 90.52485l0 0c0 -39.26005 31.826538 -71.08661 71.08661 -71.08661l0 0c18.853333 0 36.93451 7.48946 50.26581 20.820787c13.33136 13.331326 20.8208 31.412483 20.8208 50.265823l0 0c0 39.260063 -31.826538 71.08662 -71.08661 71.08662l0 0c-39.26007 0 -71.08661 -31.826553 -71.08661 -71.08662z" fill-rule="evenodd"></path><path stroke="#000000" stroke-width="1.0" stroke-linejoin="round" stroke-linecap="butt" d="m599.0385 90.52485l0 0c0 -39.26005 31.826538 -71.08661 71.08661 -71.08661l0 0c18.853333 0 36.93451 7.48946 50.26581 20.820787c13.33136 13.331326 20.8208 31.412483 20.8208 50.265823l0 0c0 39.260063 -31.826538 71.08662 -71.08661 71.08662l0 0c-39.26007 0 -71.08661 -31.826553 -71.08661 -71.08662z" fill-rule="evenodd"></path><path fill="#000000" d="m649.51184 86.88485l0 -11.453125l8.484375 0l0 1.9375l-6.171875 0l0 2.53125l5.75 0l0 1.9375l-5.75 0l0 3.109375l6.390625 0l0 1.9375l-8.703125 0zm12.9375 0l-3.34375 -8.296875l2.296875 0l1.5625 4.234375l0.453125 1.40625q0.1875 -0.53125 0.234375 -0.703125q0.109375 -0.359375 0.234375 -0.703125l1.578125 -4.234375l2.25 0l-3.296875 8.296875l-1.96875 0zm11.4140625 -2.640625l2.1875 0.359375q-0.421875 1.203125 -1.328125 1.84375q-0.90625 0.625 -2.28125 0.625q-2.15625 0 -3.203125 -1.421875q-0.8125 -1.125 -0.8125 -2.859375q0 -2.0625 1.078125 -3.21875q1.078125 -1.171875 2.71875 -1.171875q1.859375 0 2.921875 1.21875q1.078125 1.21875 1.03125 3.75l-5.5 0q0.015625 0.96875 0.515625 1.515625q0.515625 0.546875 1.28125 0.546875q0.515625 0 0.859375 -0.28125q0.359375 -0.28125 0.53125 -0.90625zm0.125 -2.21875q-0.015625 -0.953125 -0.484375 -1.453125q-0.46875 -0.5 -1.140625 -0.5q-0.71875 0 -1.1875 0.53125q-0.46875 0.515625 -0.46875 1.421875l3.28125 0zm11.5234375 4.859375l-2.203125 0l0 -4.234375q0 -1.34375 -0.140625 -1.734375q-0.140625 -0.40625 -0.453125 -0.625q-0.3125 -0.21875 -0.765625 -0.21875q-0.5625 0 -1.015625 0.3125q-0.453125 0.3125 -0.625 0.828125q-0.171875 0.515625 -0.171875 1.90625l0 3.765625l-2.1875 0l0 -8.296875l2.03125 0l0 1.21875q1.09375 -1.40625 2.734375 -1.40625q0.734375 0 1.328125 0.265625q0.609375 0.25 0.90625 0.65625q0.3125 0.40625 0.4375 0.921875q0.125 0.515625 0.125 1.484375l0 5.15625zm6.0234375 -8.296875l0 1.75l-1.5 0l0 3.34375q0 1.015625 0.046875 1.1875q0.046875 0.15625 0.1875 0.265625q0.15625 0.109375 0.375 0.109375q0.3125 0 0.890625 -0.203125l0.1875 1.703125q-0.765625 0.328125 -1.734375 0.328125q-0.59375 0 -1.078125 -0.203125q-0.46875 -0.203125 -0.703125 -0.515625q-0.21875 -0.3125 -0.296875 -0.859375q-0.078125 -0.375 -0.078125 -1.546875l0 -3.609375l-1.0 0l0 -1.75l1.0 0l0 -1.65625l2.203125 -1.28125l0 2.9375l1.5 0z" fill-rule="nonzero"></path><path fill="#000000" d="m650.254 102.150475l2.25 -0.21875q0.203125 1.140625 0.828125 1.671875q0.625 0.53125 1.671875 0.53125q1.125 0 1.6875 -0.46875q0.5625 -0.484375 0.5625 -1.109375q0 -0.40625 -0.234375 -0.6875q-0.234375 -0.296875 -0.828125 -0.5q-0.40625 -0.140625 -1.859375 -0.5q-1.859375 -0.46875 -2.609375 -1.140625q-1.046875 -0.9375 -1.046875 -2.296875q0 -0.875 0.484375 -1.640625q0.5 -0.765625 1.4375 -1.15625q0.9375 -0.40625 2.25 -0.40625q2.15625 0 3.25 0.953125q1.09375 0.9375 1.140625 2.515625l-2.3125 0.109375q-0.140625 -0.890625 -0.640625 -1.265625q-0.484375 -0.390625 -1.453125 -0.390625q-1.015625 0 -1.578125 0.40625q-0.375 0.265625 -0.375 0.71875q0 0.40625 0.34375 0.6875q0.4375 0.375 2.125 0.78125q1.6875 0.390625 2.5 0.8125q0.8125 0.421875 1.265625 1.171875q0.453125 0.734375 0.453125 1.8125q0 0.984375 -0.546875 1.84375q-0.546875 0.859375 -1.546875 1.28125q-1.0 0.421875 -2.484375 0.421875q-2.171875 0 -3.34375 -1.0q-1.15625 -1.015625 -1.390625 -2.9375zm15.046875 -4.5625l0 1.75l-1.5 0l0 3.34375q0 1.015625 0.046875 1.1875q0.046875 0.15625 0.1875 0.265625q0.15625 0.109375 0.375 0.109375q0.3125 0 0.890625 -0.203125l0.1875 1.703125q-0.765625 0.328125 -1.734375 0.328125q-0.59375 0 -1.078125 -0.203125q-0.46875 -0.203125 -0.703125 -0.515625q-0.21875 -0.3125 -0.296875 -0.859375q-0.078125 -0.375 -0.078125 -1.546875l0 -3.609375l-1.0 0l0 -1.75l1.0 0l0 -1.65625l2.203125 -1.28125l0 2.9375l1.5 0zm1.015625 4.03125q0 -1.09375 0.53125 -2.109375q0.546875 -1.03125 1.53125 -1.5625q1.0 -0.546875 2.21875 -0.546875q1.875 0 3.078125 1.21875q1.203125 1.21875 1.203125 3.09375q0 1.875 -1.21875 3.125q-1.203125 1.234375 -3.046875 1.234375q-1.140625 0 -2.1875 -0.515625q-1.03125 -0.515625 -1.578125 -1.515625q-0.53125 -1.0 -0.53125 -2.421875zm2.25 0.109375q0 1.234375 0.578125 1.890625q0.59375 0.65625 1.453125 0.65625q0.859375 0 1.4375 -0.65625q0.59375 -0.65625 0.59375 -1.90625q0 -1.21875 -0.59375 -1.875q-0.578125 -0.65625 -1.4375 -0.65625q-0.859375 0 -1.453125 0.65625q-0.578125 0.65625 -0.578125 1.890625zm10.1328125 4.15625l-2.1875 0l0 -8.296875l2.03125 0l0 1.171875q0.53125 -0.828125 0.9375 -1.09375q0.421875 -0.265625 0.953125 -0.265625q0.75 0 1.453125 0.40625l-0.6875 1.921875q-0.546875 -0.359375 -1.03125 -0.359375q-0.453125 0 -0.78125 0.25q-0.3125 0.25 -0.5 0.921875q-0.1875 0.65625 -0.1875 2.78125l0 2.5625zm8.9296875 -2.640625l2.1875 0.359375q-0.421875 1.203125 -1.328125 1.84375q-0.90625 0.625 -2.28125 0.625q-2.15625 0 -3.203125 -1.421875q-0.8125 -1.125 -0.8125 -2.859375q0 -2.0625 1.078125 -3.21875q1.078125 -1.171875 2.71875 -1.171875q1.859375 0 2.921875 1.21875q1.078125 1.21875 1.03125 3.75l-5.5 0q0.015625 0.96875 0.515625 1.515625q0.515625 0.546875 1.28125 0.546875q0.515625 0 0.859375 -0.28125q0.359375 -0.28125 0.53125 -0.90625zm0.125 -2.21875q-0.015625 -0.953125 -0.484375 -1.453125q-0.46875 -0.5 -1.140625 -0.5q-0.71875 0 -1.1875 0.53125q-0.46875 0.515625 -0.46875 1.421875l3.28125 0z" fill-rule="nonzero"></path><path fill="#cccccc" d="m7.412765 90.52485l0 0c0 -39.26005 31.826561 -71.08661 71.08662 -71.08661l0 0c18.85334 0 36.9345 7.48946 50.26583 20.820787c13.331314 13.331326 20.820786 31.412483 20.820786 50.265823l0 0c0 39.260063 -31.826569 71.08662 -71.08662 71.08662l0 0c-39.260056 0 -71.08662 -31.826553 -71.08662 -71.08662z" fill-rule="evenodd"></path><path stroke="#000000" stroke-width="1.0" stroke-linejoin="round" stroke-linecap="butt" d="m7.412765 90.52485l0 0c0 -39.26005 31.826561 -71.08661 71.08662 -71.08661l0 0c18.85334 0 36.9345 7.48946 50.26583 20.820787c13.331314 13.331326 20.820786 31.412483 20.820786 50.265823l0 0c0 39.260063 -31.826569 71.08662 -71.08662 71.08662l0 0c-39.260056 0 -71.08662 -31.826553 -71.08662 -71.08662z" fill-rule="evenodd"></path><path fill="#000000" d="m47.886097 92.1661l2.234375 0.71875q-0.515625 1.875 -1.71875 2.796875q-1.1875 0.90625 -3.03125 0.90625q-2.28125 0 -3.75 -1.5625q-1.46875 -1.5625 -1.46875 -4.265625q0 -2.859375 1.46875 -4.4375q1.484375 -1.59375 3.890625 -1.59375q2.09375 0 3.40625 1.25q0.78125 0.734375 1.171875 2.109375l-2.28125 0.546875q-0.203125 -0.890625 -0.859375 -1.40625q-0.640625 -0.515625 -1.5625 -0.515625q-1.265625 0 -2.0625 0.921875q-0.796875 0.90625 -0.796875 2.953125q0 2.171875 0.78125 3.09375q0.78125 0.921875 2.03125 0.921875q0.921875 0 1.578125 -0.578125q0.671875 -0.59375 0.96875 -1.859375zm3.6953125 -0.046875q0 -1.09375 0.53125 -2.109375q0.546875 -1.03125 1.53125 -1.5625q1.0 -0.546875 2.21875 -0.546875q1.875 0 3.078125 1.21875q1.203125 1.21875 1.203125 3.09375q0 1.875 -1.21875 3.125q-1.203125 1.234375 -3.046875 1.234375q-1.140625 0 -2.1875 -0.515625q-1.03125 -0.515625 -1.578125 -1.515625q-0.53125 -1.0 -0.53125 -2.421875zm2.25 0.109375q0 1.234375 0.578125 1.890625q0.59375 0.65625 1.453125 0.65625q0.859375 0 1.4375 -0.65625q0.59375 -0.65625 0.59375 -1.90625q0 -1.21875 -0.59375 -1.875q-0.578125 -0.65625 -1.4375 -0.65625q-0.859375 0 -1.453125 0.65625q-0.578125 0.65625 -0.578125 1.890625zm7.8671875 -4.140625l2.03125 0l0 1.125q1.0781288 -1.3125 2.5781288 -1.3125q0.796875 0 1.375 0.328125q0.59375 0.328125 0.96875 0.984375q0.546875 -0.65625 1.171875 -0.984375q0.640625 -0.328125 1.359375 -0.328125q0.921875 0 1.546875 0.375q0.640625 0.359375 0.953125 1.078125q0.21875 0.53125 0.21875 1.71875l0 5.3125l-2.1875 0l0 -4.75q0 -1.234375 -0.234375 -1.59375q-0.296875 -0.46875 -0.9375 -0.46875q-0.453125 0 -0.859375 0.28125q-0.40625 0.28125 -0.59375 0.828125q-0.171875 0.546875 -0.171875 1.71875l0 3.984375l-2.203125 0l0 -4.546875q0 -1.21875 -0.125 -1.5625q-0.109375 -0.359375 -0.359375 -0.53125q-0.234375 -0.171875 -0.65625 -0.171875q-0.515625 0 -0.921875 0.28125q-0.40625 0.265625 -0.578125 0.78125q-0.17187881 0.515625 -0.17187881 1.71875l0 4.03125l-2.203125 0l0 -8.296875zm14.226566 0l2.03125 0l0 1.125q1.078125 -1.3125 2.578125 -1.3125q0.796875 0 1.375 0.328125q0.59375 0.328125 0.96875 0.984375q0.546875 -0.65625 1.171875 -0.984375q0.640625 -0.328125 1.359375 -0.328125q0.921875 0 1.546875 0.375q0.640625 0.359375 0.953125 1.078125q0.21875 0.53125 0.21875 1.71875l0 5.3125l-2.1875 0l0 -4.75q0 -1.234375 -0.234375 -1.59375q-0.296875 -0.46875 -0.9375 -0.46875q-0.453125 0 -0.859375 0.28125q-0.40625 0.28125 -0.59375 0.828125q-0.171875 0.546875 -0.171875 1.71875l0 3.984375l-2.203125 0l0 -4.546875q0 -1.21875 -0.125 -1.5625q-0.109375 -0.359375 -0.359375 -0.53125q-0.234375 -0.171875 -0.65625 -0.171875q-0.515625 0 -0.921875 0.28125q-0.40625 0.265625 -0.578125 0.78125q-0.171875 0.515625 -0.171875 1.71875l0 4.03125l-2.203125 0l0 -8.296875zm16.039062 2.53125l-2.0 -0.359375q0.34375 -1.203125 1.15625 -1.78125q0.828125 -0.578125 2.4374924 -0.578125q1.46875 0 2.1875 0.34375q0.71875 0.34375 1.015625 0.890625q0.296875 0.53125 0.296875 1.953125l-0.03125 2.5625q0 1.09375 0.109375 1.625q0.109375 0.515625 0.390625 1.109375l-2.171875 0q-0.078125 -0.21875 -0.203125 -0.65625q-0.0625 -0.1875 -0.078125 -0.25q-0.5625 0.546875 -1.203125 0.828125q-0.640625 0.265625 -1.375 0.265625q-1.2812424 0 -2.0156174 -0.6875q-0.734375 -0.703125 -0.734375 -1.765625q0 -0.703125 0.328125 -1.25q0.34375 -0.5625 0.9375 -0.84375q0.609375 -0.296875 1.7499924 -0.515625q1.546875 -0.296875 2.140625 -0.546875l0 -0.21875q0 -0.625 -0.3125 -0.890625q-0.3125 -0.28125 -1.1875 -0.28125q-0.578125 0 -0.90625 0.234375q-0.32811737 0.234375 -0.5312424 0.8125zm2.9374924 1.78125q-0.421875 0.140625 -1.34375 0.34375q-0.90625 0.1875 -1.1875 0.375q-0.43749237 0.296875 -0.43749237 0.765625q0 0.46875 0.34374237 0.8125q0.34375 0.328125 0.875 0.328125q0.59375 0 1.140625 -0.390625q0.390625 -0.296875 0.515625 -0.734375q0.09375 -0.28125 0.09375 -1.0625l0 -0.4375zm11.8671875 3.984375l-2.203125 0l0 -4.234375q0 -1.34375 -0.140625 -1.734375q-0.140625 -0.40625 -0.453125 -0.625q-0.3125 -0.21875 -0.765625 -0.21875q-0.5625 0 -1.015625 0.3125q-0.453125 0.3125 -0.625 0.828125q-0.171875 0.515625 -0.171875 1.90625l0 3.765625l-2.1875 0l0 -8.296875l2.03125 0l0 1.21875q1.09375 -1.40625 2.734375 -1.40625q0.734375 0 1.328125 0.265625q0.609375 0.25 0.90625 0.65625q0.3125 0.40625 0.4375 0.921875q0.125 0.515625 0.125 1.484375l0 5.15625zm9.8359375 0l-2.046875 0l0 -1.21875q-0.5 0.703125 -1.203125 1.0625q-0.6875 0.34375 -1.390625 0.34375q-1.421875 0 -2.453125 -1.15625q-1.015625 -1.15625 -1.015625 -3.21875q0 -2.109375 0.984375 -3.203125q1.0 -1.09375 2.515625 -1.09375q1.390625 0 2.40625 1.15625l0 -4.125l2.203125 0l0 11.453125zm-5.859375 -4.328125q0 1.328125 0.359375 1.921875q0.53125 0.859375 1.484375 0.859375q0.765625 0 1.296875 -0.640625q0.53125 -0.65625 0.53125 -1.9375q0 -1.421875 -0.515625 -2.046875q-0.515625 -0.640625 -1.328125 -0.640625q-0.78125 0 -1.3125 0.625q-0.515625 0.625 -0.515625 1.859375z" fill-rule="nonzero"></path><path fill="#000000" fill-opacity="0.0" d="m149.586 90.52485c13.758926 0 20.639908 0.0157547 27.517853 0.03150177c6.87796 0.01574707 13.752884 0.03149414 27.505768 0.03149414" fill-rule="evenodd"></path><path stroke="#000000" stroke-width="4.0" stroke-linejoin="round" stroke-linecap="butt" d="m149.58598 90.52485c13.758942 0 20.639923 0.0157547 27.517883 0.03150177l3.5057678 0.0067977905" fill-rule="evenodd"></path><path fill="#000000" stroke="#000000" stroke-width="4.0" stroke-linecap="butt" d="m180.60283 97.17007l18.15918 -6.5882416l-18.145569 -6.6256104z" fill-rule="evenodd"></path><path fill="#000000" fill-opacity="0.0" d="m346.7946 90.52485c13.758911 0 20.639893 0.01574707 27.517853 0.03150177c6.87796 0.01574707 13.752869 0.03149414 27.505768 0.03149414" fill-rule="evenodd"></path><path stroke="#000000" stroke-width="4.0" stroke-linejoin="round" stroke-linecap="butt" d="m346.7946 90.52485c13.758942 0 20.639893 0.0157547 27.517822 0.03150177l3.5057983 0.0067977905" fill-rule="evenodd"></path><path fill="#000000" stroke="#000000" stroke-width="4.0" stroke-linecap="butt" d="m377.8114 97.17007l18.15918 -6.5882416l-18.145569 -6.6256104z" fill-rule="evenodd"></path><path fill="#000000" fill-opacity="0.0" d="m544.0032 90.52485c13.758911 0 20.639893 0.01574707 27.517822 0.03150177c6.8779907 0.01574707 13.752869 0.03149414 27.505798 0.03149414" fill-rule="evenodd"></path><path stroke="#000000" stroke-width="4.0" stroke-linejoin="round" stroke-linecap="butt" d="m544.0032 90.52485c13.758911 0 20.639893 0.0157547 27.517822 0.03150177l3.5057983 0.0067977905" fill-rule="evenodd"></path><path fill="#000000" stroke="#000000" stroke-width="4.0" stroke-linecap="butt" d="m575.02 97.17007l18.15918 -6.5882416l-18.14563 -6.6256104z" fill-rule="evenodd"></path><path fill="#000000" fill-opacity="0.0" d="m720.3909 140.79068c0 15.206192 11.1102295 25.4124 22.220459 30.4124c11.110291 5.0 22.22052 4.7937927 22.22052 9.587601" fill-rule="evenodd"></path><path stroke="#000000" stroke-width="4.0" stroke-linejoin="round" stroke-linecap="butt" d="m720.3909 140.79068c0 15.206207 11.1102295 25.4124 22.220459 30.4124l0.18347168 0.08125305" fill-rule="evenodd"></path><path fill="#000000" stroke="#000000" stroke-width="4.0" stroke-linecap="butt" d="m740.17786 177.35086l19.284668 1.1235962l-14.050659 -13.256668z" fill-rule="evenodd"></path><path fill="#000000" fill-opacity="0.0" d="m693.7376 251.88148c-307.62207 0 -615.24414 -45.133865 -615.24414 -90.267715" fill-rule="evenodd"></path><path stroke="#000000" stroke-width="4.0" stroke-linejoin="round" stroke-linecap="butt" d="m693.7376 251.88148c-153.81104 0 -307.62207 -11.283463 -422.98035 -28.208664c-57.67914 -8.462601 -105.74507 -18.335632 -139.39124 -28.91388c-8.411537 -2.6445618 -15.9218445 -5.333206 -22.45581 -8.054901c-3.2669754 -1.3608398 -6.289871 -2.7299652 -9.059303 -4.105942c-1.3847046 -0.6880188 -2.7060547 -1.3777313 -3.9628525 -2.0690002c-0.31420135 -0.17282104 -0.6243744 -0.34573364 -0.9304886 -0.5187378l-0.6299896 -0.3610382" fill-rule="evenodd"></path><path fill="#000000" stroke="#000000" stroke-width="4.0" stroke-linecap="butt" d="m99.29257 175.29037l-16.941101 -9.282242l7.0111313 18.000137z" fill-rule="evenodd"></path><path fill="#000000" fill-opacity="0.0" d="m741.21173 90.52485c13.758911 0 20.639893 -2.0 27.517883 -4.0c6.8779297 -2.0 13.752869 -4.0 27.505737 -4.0" fill-rule="evenodd"></path><path stroke="#000000" stroke-width="4.0" stroke-linejoin="round" stroke-linecap="butt" d="m741.2117 90.52485c13.758972 0 20.639954 -2.0 27.517883 -4.0c0.8597412 -0.25 1.7194214 -0.5 2.5925293 -0.74609375l1.0953369 -0.303154" fill-rule="evenodd"></path><path fill="#000000" stroke="#000000" stroke-width="4.0" stroke-linecap="butt" d="m773.22974 92.03241l17.202332 -8.788605l-18.826965 -4.3250046z" fill-rule="evenodd"></path><path fill="#cccccc" d="m796.2471 82.52485l0 0c0 -39.26005 31.8266 -71.08661 71.08661 -71.08661l0 0c18.853333 0 36.93451 7.489461 50.26587 20.82079c13.331299 13.331326 20.82074 31.412483 20.82074 50.265823l0 0c0 39.260056 -31.826538 71.08662 -71.08661 71.08662l0 0c-39.26001 0 -71.08661 -31.826561 -71.08661 -71.08662z" fill-rule="evenodd"></path><path stroke="#000000" stroke-width="1.0" stroke-linejoin="round" stroke-linecap="butt" d="m796.2471 82.52485l0 0c0 -39.26005 31.8266 -71.08661 71.08661 -71.08661l0 0c18.853333 0 36.93451 7.489461 50.26587 20.82079c13.331299 13.331326 20.82074 31.412483 20.82074 50.265823l0 0c0 39.260056 -31.826538 71.08662 -71.08661 71.08662l0 0c-39.26001 0 -71.08661 -31.826561 -71.08661 -71.08662z" fill-rule="evenodd"></path><path fill="#000000" d="m828.51996 87.60485l0 -10.734375l3.484375 0q1.96875 0 2.578125 0.15625q0.921875 0.25 1.53125 1.0625q0.625 0.796875 0.625 2.078125q0 0.984375 -0.359375 1.671875q-0.359375 0.671875 -0.90625 1.0625q-0.546875 0.375 -1.125 0.5q-0.78125 0.15625 -2.25 0.15625l-1.40625 0l0 4.046875l-2.171875 0zm2.171875 -8.921875l0 3.046875l1.1875 0q1.28125 0 1.703125 -0.171875q0.4375 -0.171875 0.671875 -0.515625q0.25 -0.359375 0.25 -0.84375q0 -0.578125 -0.34375 -0.953125q-0.34375 -0.390625 -0.875 -0.484375q-0.375 -0.078125 -1.546875 -0.078125l-1.046875 0zm9.556824 8.921875l-2.0625 0l0 -7.78125l1.921875 0l0 1.109375q0.484375 -0.78125 0.875 -1.03125q0.390625 -0.25 0.890625 -0.25q0.703125 0 1.359375 0.390625l-0.640625 1.796875q-0.515625 -0.34375 -0.96875 -0.34375q-0.4375 0 -0.734375 0.25q-0.296875 0.234375 -0.46875 0.859375q-0.171875 0.609375 -0.171875 2.59375l0 2.40625zm3.2504883 -4.0q0 -1.03125 0.5 -1.984375q0.515625 -0.953125 1.4375 -1.453125q0.9375 -0.515625 2.078125 -0.515625q1.765625 0 2.890625 1.15625q1.125 1.140625 1.125 2.890625q0 1.765625 -1.140625 2.921875q-1.140625 1.15625 -2.859375 1.15625q-1.078125 0 -2.046875 -0.484375q-0.96875 -0.484375 -1.484375 -1.40625q-0.5 -0.9375 -0.5 -2.28125zm2.109375 0.109375q0 1.15625 0.546875 1.78125q0.5625 0.609375 1.359375 0.609375q0.8125 0 1.359375 -0.609375q0.546875 -0.625 0.546875 -1.796875q0 -1.140625 -0.546875 -1.75q-0.546875 -0.625 -1.359375 -0.625q-0.796875 0 -1.359375 0.625q-0.546875 0.609375 -0.546875 1.765625zm7.2807617 -4.9375l0 -1.90625l2.0625 0l0 1.90625l-2.0625 0zm2.0625 1.046875l0 7.546875q0 1.484375 -0.203125 2.09375q-0.1875 0.609375 -0.75 0.953125q-0.546875 0.34375 -1.40625 0.34375q-0.296875 0 -0.65625 -0.0625q-0.359375 -0.046875 -0.765625 -0.15625l0.359375 -1.765625q0.140625 0.03125 0.28125 0.046875q0.125 0.03125 0.234375 0.03125q0.3125 0 0.515625 -0.140625q0.203125 -0.140625 0.265625 -0.328125q0.0625 -0.1875 0.0625 -1.140625l0 -7.421875l2.0625 0zm6.5563354 5.3125l2.046875 0.34375q-0.390625 1.125 -1.25 1.71875q-0.84375 0.578125 -2.125 0.578125q-2.03125 0 -3.0 -1.328125q-0.78125 -1.0625 -0.78125 -2.671875q0 -1.9375 1.015625 -3.03125q1.015625 -1.09375 2.5625 -1.09375q1.734375 0 2.734375 1.15625q1.0 1.140625 0.953125 3.5l-5.15625 0q0.03125 0.921875 0.5 1.4375q0.484375 0.5 1.1875 0.5q0.484375 0 0.8125 -0.265625q0.328125 -0.265625 0.5 -0.84375zm0.125 -2.09375q-0.03125 -0.890625 -0.46875 -1.34375q-0.4375 -0.46875 -1.0625 -0.46875q-0.671875 0 -1.125 0.484375q-0.4375 0.5 -0.421875 1.328125l3.078125 0zm10.307373 -0.921875l-2.03125 0.375q-0.09375 -0.609375 -0.46875 -0.90625q-0.359375 -0.3125 -0.9375 -0.3125q-0.765625 0 -1.234375 0.53125q-0.453125 0.515625 -0.453125 1.765625q0 1.390625 0.46875 1.96875q0.46875 0.5625 1.25 0.5625q0.59375 0 0.953125 -0.328125q0.375 -0.34375 0.53125 -1.15625l2.03125 0.34375q-0.328125 1.390625 -1.21875 2.109375q-0.890625 0.703125 -2.390625 0.703125q-1.703125 0 -2.71875 -1.078125q-1.015625 -1.078125 -1.015625 -2.96875q0 -1.9375 1.015625 -3.0q1.015625 -1.078125 2.75 -1.078125q1.421875 0 2.265625 0.609375q0.84375 0.609375 1.203125 1.859375zm4.932373 -2.296875l0 1.640625l-1.40625 0l0 3.140625q0 0.953125 0.03125 1.109375q0.046875 0.15625 0.1875 0.265625q0.15625 0.09375 0.359375 0.09375q0.28125 0 0.828125 -0.203125l0.171875 1.609375q-0.71875 0.296875 -1.625 0.296875q-0.5625 0 -1.015625 -0.1875q-0.4375 -0.1875 -0.65625 -0.484375q-0.203125 -0.296875 -0.28125 -0.796875q-0.0625 -0.359375 -0.0625 -1.453125l0 -3.390625l-0.9375 0l0 -1.640625l0.9375 0l0 -1.546875l2.0625 -1.203125l0 2.75l1.40625 0zm1.3181152 -1.046875l0 -1.90625l2.0625 0l0 1.90625l-2.0625 0zm0 8.828125l0 -7.78125l2.0625 0l0 7.78125l-2.0625 0zm3.5876465 -4.0q0 -1.03125 0.5 -1.984375q0.515625 -0.953125 1.4375 -1.453125q0.9375 -0.515625 2.078125 -0.515625q1.765625 0 2.890625 1.15625q1.125 1.140625 1.125 2.890625q0 1.765625 -1.140625 2.921875q-1.140625 1.15625 -2.859375 1.15625q-1.078125 0 -2.046875 -0.484375q-0.96875 -0.484375 -1.484375 -1.40625q-0.5 -0.9375 -0.5 -2.28125zm2.109375 0.109375q0 1.15625 0.546875 1.78125q0.5625 0.609375 1.359375 0.609375q0.8125 0 1.359375 -0.609375q0.546875 -0.625 0.546875 -1.796875q0 -1.140625 -0.546875 -1.75q-0.546875 -0.625 -1.359375 -0.625q-0.796875 0 -1.359375 0.625q-0.546875 0.609375 -0.546875 1.765625zm14.405701 3.890625l-2.0625 0l0 -3.96875q0 -1.265625 -0.140625 -1.625q-0.125 -0.375 -0.421875 -0.578125q-0.296875 -0.203125 -0.71875 -0.203125q-0.53125 0 -0.953125 0.296875q-0.421875 0.28125 -0.578125 0.765625q-0.15625 0.484375 -0.15625 1.796875l0 3.515625l-2.0625 0l0 -7.78125l1.90625 0l0 1.140625q1.015625 -1.3125 2.5625 -1.3125q0.6875 0 1.25 0.25q0.5625 0.234375 0.84375 0.625q0.296875 0.375 0.40625 0.859375q0.125 0.484375 0.125 1.390625l0 4.828125zm1.1557617 -2.21875l2.0625 -0.3125q0.125 0.59375 0.53125 0.90625q0.40625 0.3125 1.125 0.3125q0.796875 0 1.203125 -0.296875q0.265625 -0.203125 0.265625 -0.546875q0 -0.234375 -0.140625 -0.390625q-0.15625 -0.140625 -0.6875 -0.265625q-2.484375 -0.546875 -3.15625 -1.0q-0.921875 -0.640625 -0.921875 -1.75q0 -1.015625 0.796875 -1.703125q0.796875 -0.6875 2.46875 -0.6875q1.609375 0 2.375 0.515625q0.78125 0.515625 1.078125 1.546875l-1.953125 0.359375q-0.125 -0.453125 -0.46875 -0.6875q-0.34375 -0.25 -0.984375 -0.25q-0.8125 0 -1.171875 0.21875q-0.234375 0.15625 -0.234375 0.421875q0 0.21875 0.203125 0.375q0.28125 0.203125 1.921875 0.578125q1.65625 0.375 2.296875 0.90625q0.65625 0.5625 0.65625 1.53125q0 1.078125 -0.90625 1.84375q-0.890625 0.765625 -2.640625 0.765625q-1.59375 0 -2.515625 -0.640625q-0.921875 -0.640625 -1.203125 -1.75z" fill-rule="nonzero"></path><path fill="#cccccc" d="m812.2471 98.52485l0 0c0 -39.26005 31.8266 -71.08661 71.08661 -71.08661l0 0c18.853333 0 36.93451 7.489462 50.26587 20.820787c13.331299 13.331326 20.82074 31.412483 20.82074 50.265823l0 0c0 39.260063 -31.826538 71.08662 -71.08661 71.08662l0 0c-39.26001 0 -71.08661 -31.826553 -71.08661 -71.08662z" fill-rule="evenodd"></path><path stroke="#000000" stroke-width="1.0" stroke-linejoin="round" stroke-linecap="butt" d="m812.2471 98.52485l0 0c0 -39.26005 31.8266 -71.08661 71.08661 -71.08661l0 0c18.853333 0 36.93451 7.489462 50.26587 20.820787c13.331299 13.331326 20.82074 31.412483 20.82074 50.265823l0 0c0 39.260063 -31.826538 71.08662 -71.08661 71.08662l0 0c-39.26001 0 -71.08661 -31.826553 -71.08661 -71.08662z" fill-rule="evenodd"></path><path fill="#000000" d="m844.51996 103.60485l0 -10.734375l3.484375 0q1.96875 0 2.578125 0.15625q0.921875 0.25 1.53125 1.0625q0.625 0.796875 0.625 2.078125q0 0.984375 -0.359375 1.671875q-0.359375 0.671875 -0.90625 1.0625q-0.546875 0.375 -1.125 0.5q-0.78125 0.15625 -2.25 0.15625l-1.40625 0l0 4.046875l-2.171875 0zm2.171875 -8.921875l0 3.046875l1.1875 0q1.28125 0 1.703125 -0.171875q0.4375 -0.171875 0.671875 -0.515625q0.25 -0.359375 0.25 -0.84375q0 -0.578125 -0.34375 -0.953125q-0.34375 -0.390625 -0.875 -0.484375q-0.375 -0.078125 -1.546875 -0.078125l-1.046875 0zm9.556824 8.921875l-2.0625 0l0 -7.78125l1.921875 0l0 1.109375q0.484375 -0.78125 0.875 -1.03125q0.390625 -0.25 0.890625 -0.25q0.703125 0 1.359375 0.390625l-0.640625 1.796875q-0.515625 -0.34375 -0.96875 -0.34375q-0.4375 0 -0.734375 0.25q-0.296875 0.234375 -0.46875 0.859375q-0.171875 0.609375 -0.171875 2.59375l0 2.40625zm3.2504883 -4.0q0 -1.03125 0.5 -1.984375q0.515625 -0.953125 1.4375 -1.453125q0.9375 -0.515625 2.078125 -0.515625q1.765625 0 2.890625 1.15625q1.125 1.140625 1.125 2.890625q0 1.765625 -1.140625 2.921875q-1.140625 1.15625 -2.859375 1.15625q-1.078125 0 -2.046875 -0.484375q-0.96875 -0.484375 -1.484375 -1.40625q-0.5 -0.9375 -0.5 -2.28125zm2.109375 0.109375q0 1.15625 0.546875 1.78125q0.5625 0.609375 1.359375 0.609375q0.8125 0 1.359375 -0.609375q0.546875 -0.625 0.546875 -1.796875q0 -1.140625 -0.546875 -1.75q-0.546875 -0.625 -1.359375 -0.625q-0.796875 0 -1.359375 0.625q-0.546875 0.609375 -0.546875 1.765625zm7.2807617 -4.9375l0 -1.90625l2.0625 0l0 1.90625l-2.0625 0zm2.0625 1.046875l0 7.546875q0 1.484375 -0.203125 2.09375q-0.1875 0.609375 -0.75 0.953125q-0.546875 0.34375 -1.40625 0.34375q-0.296875 0 -0.65625 -0.0625q-0.359375 -0.046875 -0.765625 -0.15625l0.359375 -1.765625q0.140625 0.03125 0.28125 0.046875q0.125 0.03125 0.234375 0.03125q0.3125 0 0.515625 -0.140625q0.203125 -0.140625 0.265625 -0.328125q0.0625 -0.1875 0.0625 -1.140625l0 -7.421875l2.0625 0zm6.5563354 5.3125l2.046875 0.34375q-0.390625 1.125 -1.25 1.71875q-0.84375 0.578125 -2.125 0.578125q-2.03125 0 -3.0 -1.328125q-0.78125 -1.0625 -0.78125 -2.671875q0 -1.9375 1.015625 -3.03125q1.015625 -1.09375 2.5625 -1.09375q1.734375 0 2.734375 1.15625q1.0 1.140625 0.953125 3.5l-5.15625 0q0.03125 0.921875 0.5 1.4375q0.484375 0.5 1.1875 0.5q0.484375 0 0.8125 -0.265625q0.328125 -0.265625 0.5 -0.84375zm0.125 -2.09375q-0.03125 -0.890625 -0.46875 -1.34375q-0.4375 -0.46875 -1.0625 -0.46875q-0.671875 0 -1.125 0.484375q-0.4375 0.5 -0.421875 1.328125l3.078125 0zm10.307373 -0.921875l-2.03125 0.375q-0.09375 -0.609375 -0.46875 -0.90625q-0.359375 -0.3125 -0.9375 -0.3125q-0.765625 0 -1.234375 0.53125q-0.453125 0.515625 -0.453125 1.765625q0 1.390625 0.46875 1.96875q0.46875 0.5625 1.25 0.5625q0.59375 0 0.953125 -0.328125q0.375 -0.34375 0.53125 -1.15625l2.03125 0.34375q-0.328125 1.390625 -1.21875 2.109375q-0.890625 0.703125 -2.390625 0.703125q-1.703125 0 -2.71875 -1.078125q-1.015625 -1.078125 -1.015625 -2.96875q0 -1.9375 1.015625 -3.0q1.015625 -1.078125 2.75 -1.078125q1.421875 0 2.265625 0.609375q0.84375 0.609375 1.203125 1.859375zm4.932373 -2.296875l0 1.640625l-1.40625 0l0 3.140625q0 0.953125 0.03125 1.109375q0.046875 0.15625 0.1875 0.265625q0.15625 0.09375 0.359375 0.09375q0.28125 0 0.828125 -0.203125l0.171875 1.609375q-0.71875 0.296875 -1.625 0.296875q-0.5625 0 -1.015625 -0.1875q-0.4375 -0.1875 -0.65625 -0.484375q-0.203125 -0.296875 -0.28125 -0.796875q-0.0625 -0.359375 -0.0625 -1.453125l0 -3.390625l-0.9375 0l0 -1.640625l0.9375 0l0 -1.546875l2.0625 -1.203125l0 2.75l1.40625 0zm1.3181152 -1.046875l0 -1.90625l2.0625 0l0 1.90625l-2.0625 0zm0 8.828125l0 -7.78125l2.0625 0l0 7.78125l-2.0625 0zm3.5876465 -4.0q0 -1.03125 0.5 -1.984375q0.515625 -0.953125 1.4375 -1.453125q0.9375 -0.515625 2.078125 -0.515625q1.765625 0 2.890625 1.15625q1.125 1.140625 1.125 2.890625q0 1.765625 -1.140625 2.921875q-1.140625 1.15625 -2.859375 1.15625q-1.078125 0 -2.046875 -0.484375q-0.96875 -0.484375 -1.484375 -1.40625q-0.5 -0.9375 -0.5 -2.28125zm2.109375 0.109375q0 1.15625 0.546875 1.78125q0.5625 0.609375 1.359375 0.609375q0.8125 0 1.359375 -0.609375q0.546875 -0.625 0.546875 -1.796875q0 -1.140625 -0.546875 -1.75q-0.546875 -0.625 -1.359375 -0.625q-0.796875 0 -1.359375 0.625q-0.546875 0.609375 -0.546875 1.765625zm14.405701 3.890625l-2.0625 0l0 -3.96875q0 -1.265625 -0.140625 -1.625q-0.125 -0.375 -0.421875 -0.578125q-0.296875 -0.203125 -0.71875 -0.203125q-0.53125 0 -0.953125 0.296875q-0.421875 0.28125 -0.578125 0.765625q-0.15625 0.484375 -0.15625 1.796875l0 3.515625l-2.0625 0l0 -7.78125l1.90625 0l0 1.140625q1.015625 -1.3125 2.5625 -1.3125q0.6875 0 1.25 0.25q0.5625 0.234375 0.84375 0.625q0.296875 0.375 0.40625 0.859375q0.125 0.484375 0.125 1.390625l0 4.828125zm1.1557617 -2.21875l2.0625 -0.3125q0.125 0.59375 0.53125 0.90625q0.40625 0.3125 1.125 0.3125q0.796875 0 1.203125 -0.296875q0.265625 -0.203125 0.265625 -0.546875q0 -0.234375 -0.140625 -0.390625q-0.15625 -0.140625 -0.6875 -0.265625q-2.484375 -0.546875 -3.15625 -1.0q-0.921875 -0.640625 -0.921875 -1.75q0 -1.015625 0.796875 -1.703125q0.796875 -0.6875 2.46875 -0.6875q1.609375 0 2.375 0.515625q0.78125 0.515625 1.078125 1.546875l-1.953125 0.359375q-0.125 -0.453125 -0.46875 -0.6875q-0.34375 -0.25 -0.984375 -0.25q-0.8125 0 -1.171875 0.21875q-0.234375 0.15625 -0.234375 0.421875q0 0.21875 0.203125 0.375q0.28125 0.203125 1.921875 0.578125q1.65625 0.375 2.296875 0.90625q0.65625 0.5625 0.65625 1.53125q0 1.078125 -0.90625 1.84375q-0.890625 0.765625 -2.640625 0.765625q-1.59375 0 -2.515625 -0.640625q-0.921875 -0.640625 -1.203125 -1.75z" fill-rule="nonzero"></path><path fill="#d9ead3" d="m693.7376 251.88148l0 0c0 -39.260056 31.826538 -71.08661 71.08661 -71.08661l0 0c18.853333 0 36.93451 7.489456 50.26581 20.820786c13.331299 13.331329 20.8208 31.412476 20.8208 50.265823l0 0c0 39.260056 -31.8266 71.086624 -71.08661 71.086624l0 0c-39.26007 0 -71.08661 -31.826569 -71.08661 -71.086624z" fill-rule="evenodd"></path><path stroke="#000000" stroke-width="1.0" stroke-linejoin="round" stroke-linecap="butt" d="m693.7376 251.88148l0 0c0 -39.260056 31.826538 -71.08661 71.08661 -71.08661l0 0c18.853333 0 36.93451 7.489456 50.26581 20.820786c13.331299 13.331329 20.8208 31.412476 20.8208 50.265823l0 0c0 39.260056 -31.8266 71.086624 -71.08661 71.086624l0 0c-39.26007 0 -71.08661 -31.826569 -71.08661 -71.086624z" fill-rule="evenodd"></path><path fill="#000000" d="m734.8633 248.24149l0 -11.453125l3.703125 0q2.109375 0 2.75 0.171875q0.984375 0.25 1.640625 1.125q0.671875 0.859375 0.671875 2.21875q0 1.0625 -0.390625 1.78125q-0.375 0.71875 -0.96875 1.125q-0.578125 0.40625 -1.1875 0.546875q-0.828125 0.15625 -2.40625 0.15625l-1.5 0l0 4.328125l-2.3125 0zm2.3125 -9.515625l0 3.25l1.265625 0q1.359375 0 1.8125 -0.171875q0.46875 -0.1875 0.734375 -0.5625q0.265625 -0.390625 0.265625 -0.90625q0 -0.625 -0.375 -1.03125q-0.359375 -0.40625 -0.921875 -0.5q-0.421875 -0.078125 -1.671875 -0.078125l-1.109375 0zm10.4375 9.515625l-2.1875 0l0 -8.296875l2.03125 0l0 1.171875q0.53125 -0.828125 0.9375 -1.09375q0.421875 -0.265625 0.953125 -0.265625q0.75 0 1.453125 0.40625l-0.6875 1.921875q-0.546875 -0.359375 -1.03125 -0.359375q-0.453125 0 -0.78125 0.25q-0.3125 0.25 -0.5 0.921875q-0.1875 0.65625 -0.1875 2.78125l0 2.5625zm3.6171875 -4.265625q0 -1.09375 0.53125 -2.109375q0.546875 -1.03125 1.53125 -1.5625q1.0 -0.546875 2.21875 -0.546875q1.875 0 3.078125 1.21875q1.203125 1.21875 1.203125 3.09375q0 1.875 -1.21875 3.125q-1.203125 1.234375 -3.046875 1.234375q-1.140625 0 -2.1875 -0.515625q-1.03125 -0.515625 -1.578125 -1.515625q-0.53125 -1.0 -0.53125 -2.421875zm2.25 0.109375q0 1.234375 0.578125 1.890625q0.59375 0.65625 1.453125 0.65625q0.859375 0 1.4375 -0.65625q0.59375 -0.65625 0.59375 -1.90625q0 -1.21875 -0.59375 -1.875q-0.578125 -0.65625 -1.4375 -0.65625q-0.859375 0 -1.453125 0.65625q-0.578125 0.65625 -0.578125 1.890625zm15.2734375 -1.6875l-2.171875 0.390625q-0.109375 -0.65625 -0.5 -0.984375q-0.375 -0.328125 -1.0 -0.328125q-0.8125 0 -1.3125 0.578125q-0.484375 0.5625 -0.484375 1.890625q0 1.46875 0.5 2.078125q0.5 0.609375 1.328125 0.609375q0.625 0 1.015625 -0.34375q0.40625 -0.359375 0.578125 -1.234375l2.15625 0.375q-0.34375 1.484375 -1.296875 2.25q-0.953125 0.75 -2.546875 0.75q-1.828125 0 -2.90625 -1.140625q-1.078125 -1.15625 -1.078125 -3.1875q0 -2.0625 1.078125 -3.203125q1.09375 -1.140625 2.9375 -1.140625q1.515625 0 2.40625 0.65625q0.90625 0.640625 1.296875 1.984375zm6.4609375 3.203125l2.1875 0.359375q-0.421875 1.203125 -1.328125 1.84375q-0.90625 0.625 -2.28125 0.625q-2.15625 0 -3.203125 -1.421875q-0.8125 -1.125 -0.8125 -2.859375q0 -2.0625 1.078125 -3.21875q1.078125 -1.171875 2.71875 -1.171875q1.859375 0 2.921875 1.21875q1.078125 1.21875 1.03125 3.75l-5.5 0q0.015625 0.96875 0.515625 1.515625q0.515625 0.546875 1.28125 0.546875q0.515625 0 0.859375 -0.28125q0.359375 -0.28125 0.53125 -0.90625zm0.125 -2.21875q-0.015625 -0.953125 -0.484375 -1.453125q-0.46875 -0.5 -1.140625 -0.5q-0.71875 0 -1.1875 0.53125q-0.46875 0.515625 -0.46875 1.421875l3.28125 0zm3.1953125 2.484375l2.203125 -0.328125q0.140625 0.640625 0.5625 0.96875q0.4375 0.328125 1.21875 0.328125q0.84375 0 1.28125 -0.3125q0.28125 -0.21875 0.28125 -0.578125q0 -0.25 -0.15625 -0.421875q-0.15625 -0.15625 -0.734375 -0.28125q-2.65625 -0.59375 -3.359375 -1.078125q-0.984375 -0.671875 -0.984375 -1.859375q0 -1.078125 0.84375 -1.8125q0.859375 -0.734375 2.640625 -0.734375q1.703125 0 2.53125 0.5625q0.828125 0.546875 1.140625 1.625l-2.0625 0.390625q-0.140625 -0.484375 -0.515625 -0.734375q-0.359375 -0.265625 -1.046875 -0.265625q-0.875 0 -1.25 0.234375q-0.25 0.171875 -0.25 0.453125q0 0.234375 0.21875 0.390625q0.296875 0.21875 2.046875 0.625q1.765625 0.390625 2.453125 0.96875q0.6875 0.59375 0.6875 1.640625q0 1.140625 -0.953125 1.96875q-0.953125 0.8125 -2.8125 0.8125q-1.703125 0 -2.6875 -0.6875q-0.984375 -0.6875 -1.296875 -1.875zm8.8984375 0l2.203125 -0.328125q0.140625 0.640625 0.5625 0.96875q0.4375 0.328125 1.21875 0.328125q0.84375 0 1.28125 -0.3125q0.28125 -0.21875 0.28125 -0.578125q0 -0.25 -0.15625 -0.421875q-0.15625 -0.15625 -0.734375 -0.28125q-2.65625 -0.59375 -3.359375 -1.078125q-0.984375 -0.671875 -0.984375 -1.859375q0 -1.078125 0.84375 -1.8125q0.859375 -0.734375 2.640625 -0.734375q1.703125 0 2.53125 0.5625q0.828125 0.546875 1.140625 1.625l-2.0625 0.390625q-0.140625 -0.484375 -0.515625 -0.734375q-0.359375 -0.265625 -1.046875 -0.265625q-0.875 0 -1.25 0.234375q-0.25 0.171875 -0.25 0.453125q0 0.234375 0.21875 0.390625q0.296875 0.21875 2.046875 0.625q1.765625 0.390625 2.453125 0.96875q0.6875 0.59375 0.6875 1.640625q0 1.140625 -0.953125 1.96875q-0.953125 0.8125 -2.8125 0.8125q-1.703125 0 -2.6875 -0.6875q-0.984375 -0.6875 -1.296875 -1.875z" fill-rule="nonzero"></path><path fill="#000000" d="m733.0664 267.2415l0 -11.453125l3.453125 0l2.078125 7.8125l2.0625 -7.8125l3.46875 0l0 11.453125l-2.15625 0l0 -9.015625l-2.265625 9.015625l-2.234375 0l-2.265625 -9.015625l0 9.015625l-2.140625 0zm14.984375 -5.765625l-2.0 -0.359375q0.34375 -1.203125 1.15625 -1.78125q0.828125 -0.578125 2.4375 -0.578125q1.46875 0 2.1875 0.34375q0.71875 0.34375 1.015625 0.890625q0.296875 0.53125 0.296875 1.953125l-0.03125 2.5625q0 1.09375 0.109375 1.625q0.109375 0.515625 0.390625 1.109375l-2.171875 0q-0.078125 -0.21875 -0.203125 -0.65625q-0.0625 -0.1875 -0.078125 -0.25q-0.5625 0.546875 -1.203125 0.828125q-0.640625 0.265625 -1.375 0.265625q-1.28125 0 -2.015625 -0.6875q-0.734375 -0.703125 -0.734375 -1.765625q0 -0.703125 0.328125 -1.25q0.34375 -0.5625 0.9375 -0.84375q0.609375 -0.296875 1.75 -0.515625q1.546875 -0.296875 2.140625 -0.546875l0 -0.21875q0 -0.625 -0.3125 -0.890625q-0.3125 -0.28125 -1.1875 -0.28125q-0.578125 0 -0.90625 0.234375q-0.328125 0.234375 -0.53125 0.8125zm2.9375 1.78125q-0.421875 0.140625 -1.34375 0.34375q-0.90625 0.1875 -1.1875 0.375q-0.4375 0.296875 -0.4375 0.765625q0 0.46875 0.34375 0.8125q0.34375 0.328125 0.875 0.328125q0.59375 0 1.140625 -0.390625q0.390625 -0.296875 0.515625 -0.734375q0.09375 -0.28125 0.09375 -1.0625l0 -0.4375zm11.8671875 3.984375l-2.203125 0l0 -4.234375q0 -1.34375 -0.140625 -1.734375q-0.140625 -0.40625 -0.453125 -0.625q-0.3125 -0.21875 -0.765625 -0.21875q-0.5625 0 -1.015625 0.3125q-0.453125 0.3125 -0.625 0.828125q-0.171875 0.515625 -0.171875 1.90625l0 3.765625l-2.1875 0l0 -8.296875l2.03125 0l0 1.21875q1.09375 -1.40625 2.734375 -1.40625q0.734375 0 1.328125 0.265625q0.609375 0.25 0.90625 0.65625q0.3125 0.40625 0.4375 0.921875q0.125 0.515625 0.125 1.484375l0 5.15625zm3.8671875 -5.765625l-2.0 -0.359375q0.34375 -1.203125 1.15625 -1.78125q0.828125 -0.578125 2.4375 -0.578125q1.46875 0 2.1875 0.34375q0.71875 0.34375 1.015625 0.890625q0.296875 0.53125 0.296875 1.953125l-0.03125 2.5625q0 1.09375 0.109375 1.625q0.109375 0.515625 0.390625 1.109375l-2.171875 0q-0.078125 -0.21875 -0.203125 -0.65625q-0.0625 -0.1875 -0.078125 -0.25q-0.5625 0.546875 -1.203125 0.828125q-0.640625 0.265625 -1.375 0.265625q-1.28125 0 -2.015625 -0.6875q-0.734375 -0.703125 -0.734375 -1.765625q0 -0.703125 0.328125 -1.25q0.34375 -0.5625 0.9375 -0.84375q0.609375 -0.296875 1.75 -0.515625q1.546875 -0.296875 2.140625 -0.546875l0 -0.21875q0 -0.625 -0.3125 -0.890625q-0.3125 -0.28125 -1.1875 -0.28125q-0.578125 0 -0.90625 0.234375q-0.328125 0.234375 -0.53125 0.8125zm2.9375 1.78125q-0.421875 0.140625 -1.34375 0.34375q-0.90625 0.1875 -1.1875 0.375q-0.4375 0.296875 -0.4375 0.765625q0 0.46875 0.34375 0.8125q0.34375 0.328125 0.875 0.328125q0.59375 0 1.140625 -0.390625q0.390625 -0.296875 0.515625 -0.734375q0.09375 -0.28125 0.09375 -1.0625l0 -0.4375zm4.1171875 4.53125l2.5 0.3125q0.0625 0.4375 0.296875 0.59375q0.3125 0.234375 0.984375 0.234375q0.859375 0 1.28125 -0.25q0.296875 -0.171875 0.4375 -0.5625q0.109375 -0.265625 0.109375 -1.015625l0 -1.203125q-0.984375 1.34375 -2.484375 1.34375q-1.671875 0 -2.65625 -1.421875q-0.765625 -1.109375 -0.765625 -2.78125q0 -2.078125 1.0 -3.171875q1.015625 -1.109375 2.5 -1.109375q1.546875 0 2.546875 1.34375l0 -1.15625l2.046875 0l0 7.4375q0 1.484375 -0.25 2.203125q-0.234375 0.734375 -0.671875 1.140625q-0.4375 0.421875 -1.171875 0.65625q-0.71875 0.234375 -1.84375 0.234375q-2.109375 0 -3.0 -0.734375q-0.875 -0.71875 -0.875 -1.828125q0 -0.109375 0.015625 -0.265625zm1.953125 -4.875q0 1.328125 0.515625 1.9375q0.515625 0.609375 1.265625 0.609375q0.796875 0 1.34375 -0.625q0.5625 -0.625 0.5625 -1.859375q0 -1.296875 -0.53125 -1.921875q-0.53125 -0.625 -1.34375 -0.625q-0.78125 0 -1.296875 0.625q-0.515625 0.609375 -0.515625 1.859375zm12.8203125 1.6875l2.1875 0.359375q-0.421875 1.203125 -1.328125 1.84375q-0.90625 0.625 -2.28125 0.625q-2.15625 0 -3.203125 -1.421875q-0.8125 -1.125 -0.8125 -2.859375q0 -2.0625 1.078125 -3.21875q1.078125 -1.171875 2.71875 -1.171875q1.859375 0 2.921875 1.21875q1.078125 1.21875 1.03125 3.75l-5.5 0q0.015625 0.96875 0.515625 1.515625q0.515625 0.546875 1.28125 0.546875q0.515625 0 0.859375 -0.28125q0.359375 -0.28125 0.53125 -0.90625zm0.125 -2.21875q-0.015625 -0.953125 -0.484375 -1.453125q-0.46875 -0.5 -1.140625 -0.5q-0.71875 0 -1.1875 0.53125q-0.46875 0.515625 -0.46875 1.421875l3.28125 0zm6.0703125 4.859375l-2.1875 0l0 -8.296875l2.03125 0l0 1.171875q0.53125 -0.828125 0.9375 -1.09375q0.421875 -0.265625 0.953125 -0.265625q0.75 0 1.453125 0.40625l-0.6875 1.921875q-0.546875 -0.359375 -1.03125 -0.359375q-0.453125 0 -0.78125 0.25q-0.3125 0.25 -0.5 0.921875q-0.1875 0.65625 -0.1875 2.78125l0 2.5625z" fill-rule="nonzero"></path><path fill="#d9ead3" d="m709.7376 267.88147l0 0c0 -39.26004 31.826538 -71.08659 71.08661 -71.08659l0 0c18.853333 0 36.93451 7.489456 50.26581 20.820786c13.331299 13.331329 20.8208 31.412476 20.8208 50.26581l0 0c0 39.26007 -31.8266 71.08664 -71.08661 71.08664l0 0c-39.26007 0 -71.08661 -31.826569 -71.08661 -71.08664z" fill-rule="evenodd"></path><path stroke="#000000" stroke-width="1.0" stroke-linejoin="round" stroke-linecap="butt" d="m709.7376 267.88147l0 0c0 -39.26004 31.826538 -71.08659 71.08661 -71.08659l0 0c18.853333 0 36.93451 7.489456 50.26581 20.820786c13.331299 13.331329 20.8208 31.412476 20.8208 50.26581l0 0c0 39.26007 -31.8266 71.08664 -71.08661 71.08664l0 0c-39.26007 0 -71.08661 -31.826569 -71.08661 -71.08664z" fill-rule="evenodd"></path><path fill="#000000" d="m750.8633 264.2415l0 -11.453125l3.703125 0q2.109375 0 2.75 0.171875q0.984375 0.25 1.640625 1.125q0.671875 0.859375 0.671875 2.21875q0 1.0625 -0.390625 1.78125q-0.375 0.71875 -0.96875 1.125q-0.578125 0.40625 -1.1875 0.546875q-0.828125 0.15625 -2.40625 0.15625l-1.5 0l0 4.328125l-2.3125 0zm2.3125 -9.515625l0 3.25l1.265625 0q1.359375 0 1.8125 -0.171875q0.46875 -0.1875 0.734375 -0.5625q0.265625 -0.390625 0.265625 -0.90625q0 -0.625 -0.375 -1.03125q-0.359375 -0.40625 -0.921875 -0.5q-0.421875 -0.078125 -1.671875 -0.078125l-1.109375 0zm10.4375 9.515625l-2.1875 0l0 -8.296875l2.03125 0l0 1.171875q0.53125 -0.828125 0.9375 -1.09375q0.421875 -0.265625 0.953125 -0.265625q0.75 0 1.453125 0.40625l-0.6875 1.921875q-0.546875 -0.359375 -1.03125 -0.359375q-0.453125 0 -0.78125 0.25q-0.3125 0.25 -0.5 0.921875q-0.1875 0.65625 -0.1875 2.78125l0 2.5625zm3.6171875 -4.265625q0 -1.09375 0.53125 -2.109375q0.546875 -1.03125 1.53125 -1.5625q1.0 -0.546875 2.21875 -0.546875q1.875 0 3.078125 1.21875q1.203125 1.21875 1.203125 3.09375q0 1.875 -1.21875 3.125q-1.203125 1.234375 -3.046875 1.234375q-1.140625 0 -2.1875 -0.515625q-1.03125 -0.515625 -1.578125 -1.515625q-0.53125 -1.0 -0.53125 -2.421875zm2.25 0.109375q0 1.234375 0.578125 1.890625q0.59375 0.65625 1.453125 0.65625q0.859375 0 1.4375 -0.65625q0.59375 -0.65625 0.59375 -1.90625q0 -1.21875 -0.59375 -1.875q-0.578125 -0.65625 -1.4375 -0.65625q-0.859375 0 -1.453125 0.65625q-0.578125 0.65625 -0.578125 1.890625zm15.2734375 -1.6875l-2.171875 0.390625q-0.109375 -0.65625 -0.5 -0.984375q-0.375 -0.328125 -1.0 -0.328125q-0.8125 0 -1.3125 0.578125q-0.484375 0.5625 -0.484375 1.890625q0 1.46875 0.5 2.078125q0.5 0.609375 1.328125 0.609375q0.625 0 1.015625 -0.34375q0.40625 -0.359375 0.578125 -1.234375l2.15625 0.375q-0.34375 1.484375 -1.296875 2.25q-0.953125 0.75 -2.546875 0.75q-1.828125 0 -2.90625 -1.140625q-1.078125 -1.15625 -1.078125 -3.1875q0 -2.0625 1.078125 -3.203125q1.09375 -1.140625 2.9375 -1.140625q1.515625 0 2.40625 0.65625q0.90625 0.640625 1.296875 1.984375zm6.4609375 3.203125l2.1875 0.359375q-0.421875 1.203125 -1.328125 1.84375q-0.90625 0.625 -2.28125 0.625q-2.15625 0 -3.203125 -1.421875q-0.8125 -1.125 -0.8125 -2.859375q0 -2.0625 1.078125 -3.21875q1.078125 -1.171875 2.71875 -1.171875q1.859375 0 2.921875 1.21875q1.078125 1.21875 1.03125 3.75l-5.5 0q0.015625 0.96875 0.515625 1.515625q0.515625 0.546875 1.28125 0.546875q0.515625 0 0.859375 -0.28125q0.359375 -0.28125 0.53125 -0.90625zm0.125 -2.21875q-0.015625 -0.953125 -0.484375 -1.453125q-0.46875 -0.5 -1.140625 -0.5q-0.71875 0 -1.1875 0.53125q-0.46875 0.515625 -0.46875 1.421875l3.28125 0zm3.1953125 2.484375l2.203125 -0.328125q0.140625 0.640625 0.5625 0.96875q0.4375 0.328125 1.21875 0.328125q0.84375 0 1.28125 -0.3125q0.28125 -0.21875 0.28125 -0.578125q0 -0.25 -0.15625 -0.421875q-0.15625 -0.15625 -0.734375 -0.28125q-2.65625 -0.59375 -3.359375 -1.078125q-0.984375 -0.671875 -0.984375 -1.859375q0 -1.078125 0.84375 -1.8125q0.859375 -0.734375 2.640625 -0.734375q1.703125 0 2.53125 0.5625q0.828125 0.546875 1.140625 1.625l-2.0625 0.390625q-0.140625 -0.484375 -0.515625 -0.734375q-0.359375 -0.265625 -1.046875 -0.265625q-0.875 0 -1.25 0.234375q-0.25 0.171875 -0.25 0.453125q0 0.234375 0.21875 0.390625q0.296875 0.21875 2.046875 0.625q1.765625 0.390625 2.453125 0.96875q0.6875 0.59375 0.6875 1.640625q0 1.140625 -0.953125 1.96875q-0.953125 0.8125 -2.8125 0.8125q-1.703125 0 -2.6875 -0.6875q-0.984375 -0.6875 -1.296875 -1.875zm8.8984375 0l2.203125 -0.328125q0.140625 0.640625 0.5625 0.96875q0.4375 0.328125 1.21875 0.328125q0.84375 0 1.28125 -0.3125q0.28125 -0.21875 0.28125 -0.578125q0 -0.25 -0.15625 -0.421875q-0.15625 -0.15625 -0.734375 -0.28125q-2.65625 -0.59375 -3.359375 -1.078125q-0.984375 -0.671875 -0.984375 -1.859375q0 -1.078125 0.84375 -1.8125q0.859375 -0.734375 2.640625 -0.734375q1.703125 0 2.53125 0.5625q0.828125 0.546875 1.140625 1.625l-2.0625 0.390625q-0.140625 -0.484375 -0.515625 -0.734375q-0.359375 -0.265625 -1.046875 -0.265625q-0.875 0 -1.25 0.234375q-0.25 0.171875 -0.25 0.453125q0 0.234375 0.21875 0.390625q0.296875 0.21875 2.046875 0.625q1.765625 0.390625 2.453125 0.96875q0.6875 0.59375 0.6875 1.640625q0 1.140625 -0.953125 1.96875q-0.953125 0.8125 -2.8125 0.8125q-1.703125 0 -2.6875 -0.6875q-0.984375 -0.6875 -1.296875 -1.875z" fill-rule="nonzero"></path><path fill="#000000" d="m744.6172 283.2415l0 -11.453125l3.453125 0l2.078125 7.8125l2.0625 -7.8125l3.46875 0l0 11.453125l-2.15625 0l0 -9.015625l-2.265625 9.015625l-2.234375 0l-2.265625 -9.015625l0 9.015625l-2.140625 0zm14.984375 -5.765625l-2.0 -0.359375q0.34375 -1.203125 1.15625 -1.78125q0.828125 -0.578125 2.4375 -0.578125q1.46875 0 2.1875 0.34375q0.71875 0.34375 1.015625 0.890625q0.296875 0.53125 0.296875 1.953125l-0.03125 2.5625q0 1.09375 0.109375 1.625q0.109375 0.515625 0.390625 1.109375l-2.171875 0q-0.078125 -0.21875 -0.203125 -0.65625q-0.0625 -0.1875 -0.078125 -0.25q-0.5625 0.546875 -1.203125 0.828125q-0.640625 0.265625 -1.375 0.265625q-1.28125 0 -2.015625 -0.6875q-0.734375 -0.703125 -0.734375 -1.765625q0 -0.703125 0.328125 -1.25q0.34375 -0.5625 0.9375 -0.84375q0.609375 -0.296875 1.75 -0.515625q1.546875 -0.296875 2.140625 -0.546875l0 -0.21875q0 -0.625 -0.3125 -0.890625q-0.3125 -0.28125 -1.1875 -0.28125q-0.578125 0 -0.90625 0.234375q-0.328125 0.234375 -0.53125 0.8125zm2.9375 1.78125q-0.421875 0.140625 -1.34375 0.34375q-0.90625 0.1875 -1.1875 0.375q-0.4375 0.296875 -0.4375 0.765625q0 0.46875 0.34375 0.8125q0.34375 0.328125 0.875 0.328125q0.59375 0 1.140625 -0.390625q0.390625 -0.296875 0.515625 -0.734375q0.09375 -0.28125 0.09375 -1.0625l0 -0.4375zm11.8671875 3.984375l-2.203125 0l0 -4.234375q0 -1.34375 -0.140625 -1.734375q-0.140625 -0.40625 -0.453125 -0.625q-0.3125 -0.21875 -0.765625 -0.21875q-0.5625 0 -1.015625 0.3125q-0.453125 0.3125 -0.625 0.828125q-0.171875 0.515625 -0.171875 1.90625l0 3.765625l-2.1875 0l0 -8.296875l2.03125 0l0 1.21875q1.09375 -1.40625 2.734375 -1.40625q0.734375 0 1.328125 0.265625q0.609375 0.25 0.90625 0.65625q0.3125 0.40625 0.4375 0.921875q0.125 0.515625 0.125 1.484375l0 5.15625zm3.8671875 -5.765625l-2.0 -0.359375q0.34375 -1.203125 1.15625 -1.78125q0.828125 -0.578125 2.4375 -0.578125q1.46875 0 2.1875 0.34375q0.71875 0.34375 1.015625 0.890625q0.296875 0.53125 0.296875 1.953125l-0.03125 2.5625q0 1.09375 0.109375 1.625q0.109375 0.515625 0.390625 1.109375l-2.171875 0q-0.078125 -0.21875 -0.203125 -0.65625q-0.0625 -0.1875 -0.078125 -0.25q-0.5625 0.546875 -1.203125 0.828125q-0.640625 0.265625 -1.375 0.265625q-1.28125 0 -2.015625 -0.6875q-0.734375 -0.703125 -0.734375 -1.765625q0 -0.703125 0.328125 -1.25q0.34375 -0.5625 0.9375 -0.84375q0.609375 -0.296875 1.75 -0.515625q1.546875 -0.296875 2.140625 -0.546875l0 -0.21875q0 -0.625 -0.3125 -0.890625q-0.3125 -0.28125 -1.1875 -0.28125q-0.578125 0 -0.90625 0.234375q-0.328125 0.234375 -0.53125 0.8125zm2.9375 1.78125q-0.421875 0.140625 -1.34375 0.34375q-0.90625 0.1875 -1.1875 0.375q-0.4375 0.296875 -0.4375 0.765625q0 0.46875 0.34375 0.8125q0.34375 0.328125 0.875 0.328125q0.59375 0 1.140625 -0.390625q0.390625 -0.296875 0.515625 -0.734375q0.09375 -0.28125 0.09375 -1.0625l0 -0.4375zm4.1171875 4.53125l2.5 0.3125q0.0625 0.4375 0.296875 0.59375q0.3125 0.234375 0.984375 0.234375q0.859375 0 1.28125 -0.25q0.296875 -0.171875 0.4375 -0.5625q0.109375 -0.265625 0.109375 -1.015625l0 -1.203125q-0.984375 1.34375 -2.484375 1.34375q-1.671875 0 -2.65625 -1.421875q-0.765625 -1.109375 -0.765625 -2.78125q0 -2.078125 1.0 -3.171875q1.015625 -1.109375 2.5 -1.109375q1.546875 0 2.546875 1.34375l0 -1.15625l2.046875 0l0 7.4375q0 1.484375 -0.25 2.203125q-0.234375 0.734375 -0.671875 1.140625q-0.4375 0.421875 -1.171875 0.65625q-0.71875 0.234375 -1.84375 0.234375q-2.109375 0 -3.0 -0.734375q-0.875 -0.71875 -0.875 -1.828125q0 -0.109375 0.015625 -0.265625zm1.953125 -4.875q0 1.328125 0.515625 1.9375q0.515625 0.609375 1.265625 0.609375q0.796875 0 1.34375 -0.625q0.5625 -0.625 0.5625 -1.859375q0 -1.296875 -0.53125 -1.921875q-0.53125 -0.625 -1.34375 -0.625q-0.78125 0 -1.296875 0.625q-0.515625 0.609375 -0.515625 1.859375zm12.8203125 1.6875l2.1875 0.359375q-0.421875 1.203125 -1.328125 1.84375q-0.90625 0.625 -2.28125 0.625q-2.15625 0 -3.203125 -1.421875q-0.8125 -1.125 -0.8125 -2.859375q0 -2.0625 1.078125 -3.21875q1.078125 -1.171875 2.71875 -1.171875q1.859375 0 2.921875 1.21875q1.078125 1.21875 1.03125 3.75l-5.5 0q0.015625 0.96875 0.515625 1.515625q0.515625 0.546875 1.28125 0.546875q0.515625 0 0.859375 -0.28125q0.359375 -0.28125 0.53125 -0.90625zm0.125 -2.21875q-0.015625 -0.953125 -0.484375 -1.453125q-0.46875 -0.5 -1.140625 -0.5q-0.71875 0 -1.1875 0.53125q-0.46875 0.515625 -0.46875 1.421875l3.28125 0zm6.0703125 4.859375l-2.1875 0l0 -8.296875l2.03125 0l0 1.171875q0.53125 -0.828125 0.9375 -1.09375q0.421875 -0.265625 0.953125 -0.265625q0.75 0 1.453125 0.40625l-0.6875 1.921875q-0.546875 -0.359375 -1.03125 -0.359375q-0.453125 0 -0.78125 0.25q-0.3125 0.25 -0.5 0.921875q-0.1875 0.65625 -0.1875 2.78125l0 2.5625zm3.3515625 -2.375l2.203125 -0.328125q0.140625 0.640625 0.5625 0.96875q0.4375 0.328125 1.21875 0.328125q0.84375 0 1.28125 -0.3125q0.28125 -0.21875 0.28125 -0.578125q0 -0.25 -0.15625 -0.421875q-0.15625 -0.15625 -0.734375 -0.28125q-2.65625 -0.59375 -3.359375 -1.078125q-0.984375 -0.671875 -0.984375 -1.859375q0 -1.078125 0.84375 -1.8125q0.859375 -0.734375 2.640625 -0.734375q1.703125 0 2.53125 0.5625q0.828125 0.546875 1.140625 1.625l-2.0625 0.390625q-0.140625 -0.484375 -0.515625 -0.734375q-0.359375 -0.265625 -1.046875 -0.265625q-0.875 0 -1.25 0.234375q-0.25 0.171875 -0.25 0.453125q0 0.234375 0.21875 0.390625q0.296875 0.21875 2.046875 0.625q1.765625 0.390625 2.453125 0.96875q0.6875 0.59375 0.6875 1.640625q0 1.140625 -0.953125 1.96875q-0.953125 0.8125 -2.8125 0.8125q-1.703125 0 -2.6875 -0.6875q-0.984375 -0.6875 -1.296875 -1.875z" fill-rule="nonzero"></path></g></svg>

