<?xml version="1.0" standalone="yes"?>

<svg version="1.1" viewBox="0.0 0.0 960.0 720.0" fill="none" stroke="none" stroke-linecap="square" stroke-miterlimit="10" xmlns="http://www.w3.org/2000/svg" xmlns:xlink="http://www.w3.org/1999/xlink"><clipPath id="p.0"><path d="m0 0l960.0 0l0 720.0l-960.0 0l0 -720.0z" clip-rule="nonzero"></path></clipPath><g clip-path="url(#p.0)"><path fill="#000000" fill-opacity="0.0" d="m0 0l960.0 0l0 720.0l-960.0 0z" fill-rule="evenodd"></path><path fill="#b70b0b" fill-opacity="0.5615" d="m12.146981 344.14172l0 0c0 -164.19817 133.10892 -297.30707 297.3071 -297.30707l0 0c78.85074 0 154.47195 31.323338 210.22787 87.07924c55.75586 55.75589 87.07922 131.3771 87.07922 210.22784l0 0c0 164.19818 -133.10892 297.30707 -297.3071 297.30707l0 0c-164.19817 0 -297.3071 -133.10889 -297.3071 -297.30707z" fill-rule="evenodd"></path><path stroke="#000000" stroke-width="1.0" stroke-linejoin="round" stroke-linecap="butt" d="m12.146981 344.14172l0 0c0 -164.19817 133.10892 -297.30707 297.3071 -297.30707l0 0c78.85074 0 154.47195 31.323338 210.22787 87.07924c55.75586 55.75589 87.07922 131.3771 87.07922 210.22784l0 0c0 164.19818 -133.10892 297.30707 -297.3071 297.30707l0 0c-164.19817 0 -297.3071 -133.10889 -297.3071 -297.30707z" fill-rule="evenodd"></path><path fill="#ffffff" d="m128.97621 372.94174l0 -50.515625l-18.875 0l0 -6.75l45.390625 0l0 6.75l-18.9375 0l0 50.515625l-7.578125 0zm33.320312 0l0 -41.484375l6.328125 0l0 6.28125q2.421875 -4.40625 4.46875 -5.8125q2.046875 -1.40625 4.515625 -1.40625q3.546875 0 7.21875 2.265625l-2.421875 6.515625q-2.578125 -1.515625 -5.15625 -1.515625q-2.296875 0 -4.140625 1.390625q-1.828125 1.375 -2.609375 3.84375q-1.171875 3.75 -1.171875 8.203125l0 21.71875l-7.03125 0zm26.75 -49.1875l0 -8.078125l7.03125 0l0 8.078125l-7.03125 0zm0 49.1875l0 -41.484375l7.03125 0l0 41.484375l-7.03125 0zm46.132812 -13.359375l7.265625 0.890625q-1.71875 6.375 -6.375 9.890625q-4.640625 3.515625 -11.859375 3.515625q-9.109375 0 -14.4375 -5.609375q-5.328125 -5.609375 -5.328125 -15.71875q0 -10.46875 5.390625 -16.25q5.390625 -5.78125 13.984375 -5.78125q8.3125 0 13.578125 5.671875q5.28125 5.65625 5.28125 15.921875q0 0.625 -0.03125 1.875l-30.9375 0q0.390625 6.84375 3.859375 10.484375q3.484375 3.625 8.671875 3.625q3.875 0 6.609375 -2.03125q2.734375 -2.03125 4.328125 -6.484375zm-23.078125 -11.375l23.15625 0q-0.46875 -5.234375 -2.65625 -7.84375q-3.359375 -4.0625 -8.703125 -4.0625q-4.84375 0 -8.15625 3.25q-3.296875 3.234375 -3.640625 8.65625zm66.08592 24.734375l0 -5.234375q-3.9375 6.171875 -11.59375 6.171875q-4.96875 0 -9.125 -2.734375q-4.1562347 -2.734375 -6.4531097 -7.640625q-2.28125 -4.90625 -2.28125 -11.265625q0 -6.21875 2.0625 -11.265625q2.078125 -5.0625 6.2187347 -7.75q4.140625 -2.703125 9.265625 -2.703125q3.75 0 6.671875 1.578125q2.9375 1.578125 4.765625 4.125l0 -20.546875l7.0 0l0 57.265625l-6.53125 0zm-22.218735 -20.703125q0 7.96875 3.3593597 11.921875q3.359375 3.9375 7.921875 3.9375q4.609375 0 7.828125 -3.765625q3.234375 -3.78125 3.234375 -11.515625q0 -8.515625 -3.28125 -12.5q-3.28125 -3.984375 -8.09375 -3.984375q-4.6875 0 -7.828125 3.828125q-3.1406097 3.828125 -3.1406097 12.078125z" fill-rule="nonzero"></path><path fill="#003cb7" fill-opacity="0.5615" d="m345.75592 344.14172l0 0c0 -164.19817 133.10892 -297.30707 297.30713 -297.30707l0 0c78.85071 0 154.47192 31.323338 210.22784 87.07924c55.75586 55.75589 87.07922 131.3771 87.07922 210.22784l0 0c0 164.19818 -133.10895 297.30707 -297.30707 297.30707l0 0c-164.19821 0 -297.30713 -133.10889 -297.30713 -297.30707z" fill-rule="evenodd"></path><path stroke="#000000" stroke-width="1.0" stroke-linejoin="round" stroke-linecap="butt" d="m345.75592 344.14172l0 0c0 -164.19817 133.10892 -297.30707 297.30713 -297.30707l0 0c78.85071 0 154.47192 31.323338 210.22784 87.07924c55.75586 55.75589 87.07922 131.3771 87.07922 210.22784l0 0c0 164.19818 -133.10895 297.30707 -297.30707 297.30707l0 0c-164.19821 0 -297.30713 -133.10889 -297.30713 -297.30707z" fill-rule="evenodd"></path><path fill="#ffffff" d="m700.5487 372.94174l0 -50.515625l-18.875 0l0 -6.75l45.390625 0l0 6.75l-18.9375 0l0 50.515625l-7.578125 0zm33.320312 0l0 -41.484375l6.328125 0l0 6.28125q2.421875 -4.40625 4.46875 -5.8125q2.046875 -1.40625 4.515625 -1.40625q3.546875 0 7.21875 2.265625l-2.421875 6.515625q-2.578125 -1.515625 -5.15625 -1.515625q-2.296875 0 -4.140625 1.390625q-1.828125 1.375 -2.609375 3.84375q-1.171875 3.75 -1.171875 8.203125l0 21.71875l-7.03125 0zm53.90625 0l0 -6.09375q-4.84375 7.03125 -13.171875 7.03125q-3.671875 0 -6.859375 -1.40625q-3.171875 -1.40625 -4.71875 -3.53125q-1.546875 -2.140625 -2.171875 -5.21875q-0.421875 -2.078125 -0.421875 -6.5625l0 -25.703125l7.03125 0l0 23.0q0 5.515625 0.421875 7.421875q0.671875 2.78125 2.8125 4.359375q2.15625 1.578125 5.3125 1.578125q3.171875 0 5.9375 -1.609375q2.78125 -1.625 3.921875 -4.421875q1.15625 -2.796875 1.15625 -8.109375l0 -22.21875l7.03125 0l0 41.484375l-6.28125 0zm45.695312 -13.359375l7.265625 0.890625q-1.71875 6.375 -6.375 9.890625q-4.640625 3.515625 -11.859375 3.515625q-9.109375 0 -14.4375 -5.609375q-5.328125 -5.609375 -5.328125 -15.71875q0 -10.46875 5.390625 -16.25q5.390625 -5.78125 13.984375 -5.78125q8.3125 0 13.578125 5.671875q5.28125 5.65625 5.28125 15.921875q0 0.625 -0.03125 1.875l-30.9375 0q0.390625 6.84375 3.859375 10.484375q3.484375 3.625 8.671875 3.625q3.875 0 6.609375 -2.03125q2.734375 -2.03125 4.328125 -6.484375zm-23.078125 -11.375l23.15625 0q-0.46875 -5.234375 -2.65625 -7.84375q-3.359375 -4.0625 -8.703125 -4.0625q-4.84375 0 -8.15625 3.25q-3.296875 3.234375 -3.640625 8.65625z" fill-rule="nonzero"></path></g></svg>

